<svg width="18" height="18" viewBox="0 0 18 18" fill="none" xmlns="http://www.w3.org/2000/svg">
<path d="M14 7C15.0609 7 16.0783 7.42143 16.8284 8.17157C17.5786 8.92172 18 9.93913 18 11V16C18 16.5304 17.7893 17.0391 17.4142 17.4142C17.0391 17.7893 16.5304 18 16 18H2C1.46957 18 0.960859 17.7893 0.585786 17.4142C0.210714 17.0391 0 16.5304 0 16V11C0 9.93913 0.421427 8.92172 1.17157 8.17157C1.92172 7.42143 2.93913 7 4 7V4H6V7H8V4H10V7H12V4H14V7ZM4 9C3.46957 9 2.96086 9.21071 2.58579 9.58579C2.21071 9.96086 2 10.4696 2 11V12H16V11C16 10.4696 15.7893 9.96086 15.4142 9.58579C15.0391 9.21071 14.5304 9 14 9H4ZM2 14V16H16V14H2ZM4 1C4.26522 1 4.51957 0.894643 4.70711 0.707107C4.89464 0.51957 5 0.265216 5 0C5.26522 0 5.51957 0.105357 5.70711 0.292893C5.89464 0.48043 6 0.734784 6 1V2C6 2.26522 5.89464 2.51957 5.70711 2.70711C5.51957 2.89464 5.26522 3 5 3C4.73478 3 4.48043 2.89464 4.29289 2.70711C4.10536 2.51957 4 2.26522 4 2V1ZM8 1C8.26522 1 8.51957 0.894643 8.70711 0.707107C8.89464 0.51957 9 0.265216 9 0C9.26522 0 9.51957 0.105357 9.70711 0.292893C9.89464 0.48043 10 0.734784 10 1V2C10 2.26522 9.89464 2.51957 9.70711 2.70711C9.51957 2.89464 9.26522 3 9 3C8.73478 3 8.48043 2.89464 8.29289 2.70711C8.10536 2.51957 8 2.26522 8 2V1ZM12 1C12.2652 1 12.5196 0.894643 12.7071 0.707107C12.8946 0.51957 13 0.265216 13 0C13.2652 0 13.5196 0.105357 13.7071 0.292893C13.8946 0.48043 14 0.734784 14 1V2C14 2.26522 13.8946 2.51957 13.7071 2.70711C13.5196 2.89464 13.2652 3 13 3C12.7348 3 12.4804 2.89464 12.2929 2.70711C12.1054 2.51957 12 2.26522 12 2V1Z" fill="black"/>
</svg>
