<svg id="Layer_2" data-name="Layer 2" xmlns="http://www.w3.org/2000/svg" viewBox="0 0 1000 1000"><defs><style>.cls-1{fill:#edead9;}.cls-2{fill:#f19400;}.cls-3{fill:#fd510c;}.cls-4{fill:#ffaabe;}.cls-5{fill:#129277;}.cls-6{fill:#231f20;}.cls-7{fill:#ee9334;}</style></defs><path class="cls-1" d="M948.41,564.77V472.6C895.67,454.09,848.63,384.18,832.49,358h-.58v96C850.93,484,897.31,549.33,948.41,564.77Z"/><path class="cls-2" d="M948,472.53V358H832.15C848.28,384.16,895.3,454,948,472.53Z"/><path class="cls-2" d="M831.91,641.08V792.82h116.5V749.46C898.17,735.52,852.23,672.57,831.91,641.08Z"/><path class="cls-1" d="M831.91,544.21v96.87c20.32,31.49,66.26,94.44,116.5,108.38V657.38C896.27,640.35,849.38,572.21,831.91,544.21Z"/><path class="cls-2" d="M948,657.21V564.65C896.93,549.22,850.58,483.9,831.57,454V544.1C849,572.08,895.9,640.18,948,657.21Z"/><ellipse class="cls-3" cx="890.16" cy="356.85" rx="58.25" ry="21.21"/><path class="cls-4" d="M932,335.65a14.75,14.75,0,0,0-10.94-10.89,14.38,14.38,0,0,0,.42-3.43,14.64,14.64,0,0,0-14.64-14.65,15.06,15.06,0,0,0-3.64.47,14.64,14.64,0,0,0-28.4,1.69,14.17,14.17,0,0,0-1.6-.1,14.65,14.65,0,0,0-14.65,14.65c0,.18,0,.36,0,.54,0,0-2.68,1.22-2.89,1.33a13.74,13.74,0,0,0-5.9,5.45,14.77,14.77,0,0,0,1.6,16.89,19.42,19.42,0,0,0,15.87,8.23h45.78a19.28,19.28,0,0,0,11.46-3.76,28.73,28.73,0,0,0,3.76-2.75,14.84,14.84,0,0,0,2.76-3.9A14.36,14.36,0,0,0,932,335.65Z"/><path class="cls-3" d="M402.68,415.54c68.67,0,127.85-34.39,154.93-84v-1.84l-310,1.62C274.66,381.05,333.91,415.54,402.68,415.54Z"/><path class="cls-1" d="M557.61,391.12V331.59c-27.08,49.56-86.26,84-154.93,84s-128-34.49-155-84.17h-.74V793.08H557.61v-402Z"/><path class="cls-2" d="M549.37,390.2a36.41,36.41,0,1,0,8.06,71.9v-71A36.87,36.87,0,0,0,549.37,390.2Z"/><path class="cls-2" d="M278.5,426.6a36.42,36.42,0,0,0-31.6-36.08v72.16A36.41,36.41,0,0,0,278.5,426.6Z"/><path class="cls-2" d="M389.8,745.38a36.41,36.41,0,0,0-34.69,47.44H424.5a36.41,36.41,0,0,0-34.7-47.44Z"/><path class="cls-4" d="M442.09,289.16c-1.09,0-2.16.06-3.22.15a35.39,35.39,0,0,0-69.61.52,35.39,35.39,0,1,0,1.8,69.05,35.39,35.39,0,0,0,62.63.06,35.39,35.39,0,1,0,8.4-69.78Z"/><circle class="cls-2" cx="372.27" cy="503.3" r="36.41"/><circle class="cls-2" cx="477.35" cy="637.68" r="36.41"/><path class="cls-3" d="M420.35,341.06c-5.26,0-9.51-3.41-11.53-5.37a20,20,0,0,1-22.14-31.46,2.5,2.5,0,0,1,4,3,15.06,15.06,0,0,0,17.87,23.21l1.73-.72,1.18,1.45c0,.05,4.57,5.47,9.77,4.81a10.66,10.66,0,0,0,9-7.59,2.5,2.5,0,0,1,4.8,1.39A15.66,15.66,0,0,1,421.83,341,12.37,12.37,0,0,1,420.35,341.06Z"/><path class="cls-1" d="M722.34,452.37a20,20,0,0,0,.56-4.61,19.58,19.58,0,0,0-24.51-19,19.64,19.64,0,0,0-38.1,2.26,18.92,18.92,0,0,0-2.14-.12,19.64,19.64,0,0,0-19.65,19.64c0,.24,0,.48,0,.72a19.63,19.63,0,1,0,23.74,25.4,19.73,19.73,0,0,0,11.53,9.53,19.94,19.94,0,0,0,5.8.87c10.06-.05,17.3-8.74,18.76-10.55a21.87,21.87,0,0,0,6.25,9.38c1.38,1.21,6.57,5.28,13.39,5.28a19.64,19.64,0,0,0,4.33-38.79Z"/><path class="cls-5" d="M688.11,510.6c73.65-2.06,112.65-35.75,116.28-39h-247C586,497.1,635.92,512.07,688.11,510.6Z"/><path class="cls-3" d="M687.85,510.51C635.7,512,585.77,497,557.2,471.53v96.41H804.07V471.53C800.44,474.78,761.46,508.45,687.85,510.51Z"/><rect class="cls-4" x="659.97" y="471.6" width="41.82" height="96.46"/><path class="cls-4" d="M220.8,513.72A141.44,141.44,0,0,0,96.25,636.31H220.8Z"/><path class="cls-4" d="M96.46,673.69a141.44,141.44,0,0,0,124.34,121v-121Z"/><path class="cls-4" d="M258.19,794A141.46,141.46,0,0,0,376.55,673.69H258.19Z"/><path class="cls-4" d="M376.77,636.31A141.47,141.47,0,0,0,258.19,514.5V636.31Z"/><path class="cls-5" d="M258.19,636.31V514.5a141.67,141.67,0,0,0-37.39-.78V636.31Z"/><path class="cls-5" d="M220.8,673.69v121a142.84,142.84,0,0,0,37.39-.78V673.69Z"/><path class="cls-5" d="M220.8,636.31H96.25a142.3,142.3,0,0,0,.21,37.38H220.8Z"/><path class="cls-5" d="M376.77,636.31H258.19v37.38H376.55a142.9,142.9,0,0,0,.22-37.38Z"/><path class="cls-6" d="M258.69,674.19H220.3V635.81h38.39Zm-37.39-1h36.39V636.81H221.3Z"/><path class="cls-1" d="M285,653.7a16.15,16.15,0,0,0-8.1-14,15.5,15.5,0,0,0,.17-2.17,16.17,16.17,0,0,0-16.17-16.16,17.16,17.16,0,0,0-2.16.16A16.14,16.14,0,0,0,229.62,624a16.09,16.09,0,0,0-22.83,16.74,16.13,16.13,0,0,0-1.39,24.87,16.15,16.15,0,0,0,22.35,22.36,16.15,16.15,0,0,0,29.94,3.27,16.16,16.16,0,0,0,19.8-23.84A16.14,16.14,0,0,0,285,653.7Z"/><path class="cls-3" d="M247.22,673.87c-3.5,0-6.35-2.06-7.9-3.47A14.18,14.18,0,0,1,224.12,648a2.5,2.5,0,1,1,4,3A9.2,9.2,0,0,0,239,665.21l1.73-.73,1.18,1.45c.75.91,3.27,3.21,5.76,2.91a6.28,6.28,0,0,0,5.28-4.46,2.5,2.5,0,1,1,4.8,1.39,11.24,11.24,0,0,1-9.47,8A8,8,0,0,1,247.22,673.87Z"/><path class="cls-4" d="M861.26,623.28H557.63v169.8H903.21a15.37,15.37,0,0,0,15.37-15.37V623.28Z"/><path class="cls-3" d="M615,791.92a2.49,2.49,0,0,1-2.5-2.5V650.09a2.5,2.5,0,1,1,5,0V789.42A2.49,2.49,0,0,1,615,791.92Z"/><path class="cls-3" d="M664.24,791.92a2.49,2.49,0,0,1-2.5-2.5V650.09a2.5,2.5,0,1,1,5,0V789.42A2.49,2.49,0,0,1,664.24,791.92Z"/><path class="cls-3" d="M713.49,791.92a2.49,2.49,0,0,1-2.5-2.5V650.09a2.5,2.5,0,1,1,5,0V789.42A2.49,2.49,0,0,1,713.49,791.92Z"/><path class="cls-3" d="M762.75,791.92a2.49,2.49,0,0,1-2.5-2.5V650.09a2.5,2.5,0,0,1,5,0V789.42A2.49,2.49,0,0,1,762.75,791.92Z"/><path class="cls-3" d="M812,791.92a2.49,2.49,0,0,1-2.5-2.5V650.09a2.5,2.5,0,0,1,5,0V789.42A2.49,2.49,0,0,1,812,791.92Z"/><path class="cls-3" d="M861.26,791.92a2.49,2.49,0,0,1-2.5-2.5V650.09a2.5,2.5,0,1,1,5,0V789.42A2.49,2.49,0,0,1,861.26,791.92Z"/><path class="cls-1" d="M918.58,583.43a15.37,15.37,0,0,0-15.37-15.37H557.63v55.22h.43A32.73,32.73,0,0,0,615,650.09a32.72,32.72,0,0,0,49.24,0,32.73,32.73,0,0,0,49.25,0,32.73,32.73,0,0,0,49.25,0,32.73,32.73,0,0,0,49.25,0,32.72,32.72,0,0,0,49.24,0,32.72,32.72,0,0,0,56.93-26.81h.43Z"/><path class="cls-7" d="M811.66,265.49l-34,5.66a1.18,1.18,0,0,0-.83,1.74l10.34,18.16a1.17,1.17,0,0,1-1.59,1.6l-18.14-10.32a1.17,1.17,0,0,0-1.74.84L760,321.91a1.17,1.17,0,0,1-2.32,0L752,283.17a1.17,1.17,0,0,0-1.74-.84l-18.14,10.32a1.17,1.17,0,0,1-1.59-1.6l10.33-18.15a1.17,1.17,0,0,0-.84-1.74l-36.09-5.67a1.17,1.17,0,0,1,0-2.32L740,257.5a1.17,1.17,0,0,0,.84-1.74l-10.33-18.15a1.17,1.17,0,0,1,1.59-1.6l18.13,10.32a1.17,1.17,0,0,0,1.74-.85l5.69-40.09a1.18,1.18,0,0,1,2.33,0l5.69,40.09a1.17,1.17,0,0,0,1.74.85L785.53,236a1.17,1.17,0,0,1,1.6,1.6l-10.35,18.16a1.17,1.17,0,0,0,.83,1.74l34,5.66A1.18,1.18,0,0,1,811.66,265.49Z"/><path class="cls-7" d="M160.35,415.33l-34,5.67a1.17,1.17,0,0,0-.83,1.73l10.35,18.17a1.18,1.18,0,0,1-1.6,1.6l-18.14-10.33a1.17,1.17,0,0,0-1.74.85l-5.68,38.74a1.17,1.17,0,0,1-2.32,0L100.65,433a1.17,1.17,0,0,0-1.74-.85L80.77,442.5a1.17,1.17,0,0,1-1.59-1.6l10.33-18.15a1.17,1.17,0,0,0-.84-1.74l-36.09-5.67a1.17,1.17,0,0,1,0-2.32l36.09-5.68a1.16,1.16,0,0,0,.84-1.73L79.18,387.46a1.17,1.17,0,0,1,1.6-1.6L98.9,396.18a1.17,1.17,0,0,0,1.74-.85l5.7-40.09a1.17,1.17,0,0,1,2.32,0l5.69,40.09a1.17,1.17,0,0,0,1.74.85l18.13-10.32a1.17,1.17,0,0,1,1.6,1.6l-10.35,18.16a1.18,1.18,0,0,0,.83,1.74L160.35,413A1.17,1.17,0,0,1,160.35,415.33Z"/></svg>