<svg id="Layer_2" data-name="Layer 2" xmlns="http://www.w3.org/2000/svg" viewBox="0 0 1000 1000"><defs><style>.cls-1{fill:#ffaabe;}.cls-2{fill:#edead9;}.cls-3{fill:#fd510c;}.cls-4{fill:#bc4632;}.cls-5{fill:#129277;}.cls-6{fill:#3a140f;}.cls-7{fill:#ee9334;}.cls-8{fill:#ff9191;}</style></defs><path class="cls-1" d="M626.73,138.07h-135v64.36a11.13,11.13,0,0,0,11.13,11.14H641.08a11.14,11.14,0,0,0,11.14-11.14V138.07Z"/><path class="cls-2" d="M641.08,113.52H502.86a11.13,11.13,0,0,0-11.13,11.13v13.42H652.22V124.65A11.13,11.13,0,0,0,641.08,113.52Z"/><path class="cls-3" d="M517.23,212.64a2.92,2.92,0,0,1-2.92-2.92V150a2.92,2.92,0,1,1,5.84,0v59.73A2.92,2.92,0,0,1,517.23,212.64Z"/><path class="cls-3" d="M539.13,212.64a2.91,2.91,0,0,1-2.92-2.92V150a2.92,2.92,0,1,1,5.84,0v59.73A2.92,2.92,0,0,1,539.13,212.64Z"/><path class="cls-3" d="M561,212.64a2.91,2.91,0,0,1-2.92-2.92V150a2.92,2.92,0,0,1,5.84,0v59.73A2.92,2.92,0,0,1,561,212.64Z"/><path class="cls-3" d="M582.93,212.64a2.91,2.91,0,0,1-2.92-2.92V150a2.92,2.92,0,0,1,5.84,0v59.73A2.92,2.92,0,0,1,582.93,212.64Z"/><path class="cls-3" d="M604.83,212.64a2.91,2.91,0,0,1-2.92-2.92V150a2.92,2.92,0,1,1,5.84,0v59.73A2.92,2.92,0,0,1,604.83,212.64Z"/><path class="cls-3" d="M626.73,212.64a2.92,2.92,0,0,1-2.93-2.92V150a2.93,2.93,0,0,1,5.85,0v59.73A2.92,2.92,0,0,1,626.73,212.64Z"/><path class="cls-2" d="M652,138.07H491.92a14.24,14.24,0,0,0,.5,6.73A14.53,14.53,0,0,0,517.23,150a14.55,14.55,0,0,0,21.9,0A14.54,14.54,0,0,0,561,150a14.55,14.55,0,0,0,21.9,0,14.55,14.55,0,0,0,21.9,0,14.54,14.54,0,0,0,21.89,0A14.56,14.56,0,0,0,652,138.07Z"/><path class="cls-4" d="M553,182.72c-8.75-5.5-16.92-11.87-25.85-17.07-4.65-2.7-12.77-5.09-13.46,2.75a11,11,0,0,0,1,5.85c1.86,4,13,22.85,28.89,48.22q14.94.59,30.11,1.34,10.59.52,21.06,1.12C588,212,582.27,198.6,575,186c-2.69-4.7-12.32-24.62-19.92-21.06-2.51,1.18-4,4.89-4.06,7.5C551,174.36,551.23,181.61,553,182.72Z"/><path class="cls-1" d="M597.48,61.34a8.2,8.2,0,0,0-6.09-6.06,8,8,0,0,0,.24-1.91,8.14,8.14,0,0,0-8.15-8.14,7.93,7.93,0,0,0-2,.26,8.14,8.14,0,0,0-15.8.93,8.69,8.69,0,0,0-.89-.05,8.15,8.15,0,0,0-8.14,8.15c0,.1,0,.2,0,.3s-1.49.68-1.6.74a7.65,7.65,0,0,0-3.29,3,8.22,8.22,0,0,0,.9,9.39,10.76,10.76,0,0,0,8.82,4.58h25.46a10.76,10.76,0,0,0,6.38-2.09,15.45,15.45,0,0,0,2.08-1.53,8.08,8.08,0,0,0,1.54-2.17A8,8,0,0,0,597.48,61.34Z"/><rect class="cls-3" x="541.81" y="83.48" width="64.78" height="14.51"/><rect class="cls-5" x="541.81" y="97.99" width="64.78" height="16.25"/><path class="cls-5" d="M606.59,73.57a6.34,6.34,0,0,0-6.34-6.34h-52.1a6.34,6.34,0,0,0-6.34,6.34v9.91h64.78Z"/><path class="cls-3" d="M579.12,65A7,7,0,0,1,575,63.53a8.41,8.41,0,0,1-8.09-13.48,2.93,2.93,0,1,1,4.66,3.54,2.7,2.7,0,0,0,0,3.38,2.67,2.67,0,0,0,3,.61l2-.84L578,58.43a2.08,2.08,0,0,0,1.13.74,1.19,1.19,0,0,0,1-.85A2.93,2.93,0,0,1,585.77,60a7,7,0,0,1-5.92,5A6.25,6.25,0,0,1,579.12,65Z"/><path class="cls-6" d="M464.44,868.6c-5.65,1.47-11.86,3.45-19.84,1.27a27.54,27.54,0,0,1-9.76-5,33.86,33.86,0,0,1-8.3-9.79q-2.4-4.2-4.82-8.39l-62.18,27.46,15.17,34.34,11.52,26.09,117.89-52.07C496.41,868.08,479.38,864.71,464.44,868.6Z"/><path class="cls-1" d="M386.23,934.58l.39.89a8.06,8.06,0,0,0,10.61,4.11L454,914.49l47.65-21a6.75,6.75,0,0,0,3.44-8.89c-.31-.71-.65-1.38-1-2Z"/><path class="cls-6" d="M118.72,889.53c-3.07-5-6.79-10.31-7.06-18.58a27.36,27.36,0,0,1,1.9-10.8,33.78,33.78,0,0,1,6.9-10.82l6.59-7.08L82.46,791,54.13,815.57,32.6,834.28l84.54,97.27C128.66,919.93,126.85,902.66,118.72,889.53Z"/><path class="cls-1" d="M32.6,834.28l-.73.64a8.05,8.05,0,0,0-.8,11.35l40.74,46.87L106,932.46a6.74,6.74,0,0,0,9.5.66c.59-.51,1.14-1,1.66-1.57Z"/><path class="cls-2" d="M408.71,870.8a2.93,2.93,0,0,1-1.25-5.57l18.31-8.64a2.93,2.93,0,0,1,2.5,5.29L410,870.52A2.92,2.92,0,0,1,408.71,870.8Z"/><path class="cls-2" d="M417.87,880.73a2.92,2.92,0,0,1-1.25-5.57l18.31-8.64a2.92,2.92,0,0,1,2.49,5.29l-18.31,8.64A2.87,2.87,0,0,1,417.87,880.73Z"/><path class="cls-2" d="M108.49,867.69a2.9,2.9,0,0,1-2.11-.9l-14-14.6a2.92,2.92,0,0,1,4.22-4.05l14,14.6a2.93,2.93,0,0,1-2.1,5Z"/><polygon class="cls-4" points="61.85 776.45 137.84 863.88 164.94 840.32 87.8 753.9 61.85 776.45"/><path class="cls-7" d="M87.8,753.9l77.14,86.42,95.79-83.24-59-102.21Z"/><path class="cls-4" d="M318.63,857.41l18.76,32.52L443,842.38l-17.2-34Z"/><path class="cls-7" d="M277.19,515H144.35c-2.89,22.52.6,39.14,4.82,50.7,9,24.76,30.27,50.53,30.27,50.53l22.3,38.66,27.66-24,76,87.43-44.66,38.82C282.45,794.73,304,832,318.63,857.41l107.16-49Z"/><path class="cls-7" d="M229.4,630.83l-27.66,24,59,102.21,44.66-38.82Z"/><path class="cls-2" d="M277.19,515H144.35l-8.74-42.11L120,397.35c-3.22-15.55-8.8-31.78-7-48,2-18.22,15.37-31.64,33.5-34.27,10.14-1.47,20.62-.26,30.82-.26h37.54c34.45,0,62.37,31,62.37,69.26Z"/><path class="cls-4" d="M181.29,293.7h-5.64a15.23,15.23,0,0,1-15.23-15.24V227.69h20.87Z"/><path class="cls-1" d="M370.1,216.21a3.42,3.42,0,0,0-.42-.23c-.5-.19,1.29,1.09.79.59s1,1.32.59.78c-.54-.8.28.69.27.72a5.44,5.44,0,0,0-.34-1.3c-.06-.3-.11-.61-.16-.92l-.06-.39c-.15-1,0,.25.07.53-.41-3.6-.87-7.2-1.41-10.78q-1.06-7-2.72-13.9a136.85,136.85,0,0,0-5.09-16.9,74.1,74.1,0,0,0-8.17-16.4c-7.7-11-21.53-17.33-34.11-9.73-18.43,11.14-10.68,34.38.16,47.78,5.58,6.9,12.41,12.65,19.08,18.46,5.37,4.68,11.1,9,17.75,11.67,3.46,1.39,7.5,2.12,11.16,1.06,4.85-1.42,8.07-5.65,9.17-10.47a58.33,58.33,0,0,0,.9-8.24c.05-.72.13-1.44.21-2.15,0-.26.2-1.55,0-.41s.07-.43.12-.72a84.24,84.24,0,0,1,2.15-9.82c3-10.71,8.07-21.74,15.82-29.86,5.73-6,21.16-15.17,28.55-6.51,1.76,2.06,2,5.09,1.34,7.72-1.73,6.67-7,13.44-11.19,18.75-1.06,1.36-2.15,2.69-3.26,4-2.34,2.76-4.77,5.45-7.29,8s-5.22,5.16-8,7.56c-.66.57-1.33,1.13-2,1.68l-.94.76-.54.43c-.81.64.81-.61.23-.18-1.39,1-2.76,2-4.2,3s-2.77,1.76-4.21,2.55c-.67.36-1.35.71-2,1-.31.16-.62.3-.94.45s-.36.15-.53.24c-.59.28,1.47-.59.46-.2a34.7,34.7,0,0,1-4.07,1.36c-.64.16-1.28.28-1.93.41-1.19.23.75-.07.42-.05s-.75.08-1.12.1a16.45,16.45,0,0,1-1.72,0c-.32,0-.64,0-1-.06-1.17-.09.68.12.49.07-.57-.16-1.17-.23-1.74-.39l-.9-.3c-1.21-.42,1.11.5.29.13-2.77-1.27-6.42-.89-8,2.1-1.36,2.56-.88,6.64,2.09,8,13.46,6.13,27.4-2.55,37.7-10.88A140,140,0,0,0,430.1,184c4.21-6.39,8.36-14,7.62-21.93a18.64,18.64,0,0,0-9.1-14.52,24.94,24.94,0,0,0-13.85-3.17c-15.94.61-28.26,11.93-36.13,24.95a93.42,93.42,0,0,0-9.26,21.08,97.08,97.08,0,0,0-3.72,21.25l-.09,1c0,.1-.13.95,0,.26s-.08.34-.11.51c-.07.34-.15.67-.25,1s-.18.5-.23.74c.13-.71.24-.46.06-.14s-1,1.52-.34.69-.09,0-.27.25-.32.23-.39.35c.06-.1,1.26-.78.56-.46-.26.11-1.22.6-.2.16s-.22,0-.49.09c-.88.27,1.56-.07.4-.06-.36,0-.71,0-1.07,0l-.41,0c-.87,0,.66.07.72.1a9.23,9.23,0,0,0-1.29-.27,17,17,0,0,1-2.2-.7l-.45-.17c-.69-.23,1.17.53.5.21-.44-.22-.9-.41-1.34-.63a68.77,68.77,0,0,1-8.58-5.51c.63.44.91.71.15.11-.25-.2-.5-.39-.75-.6-.5-.4-1-.82-1.5-1.24-1.45-1.24-2.88-2.5-4.32-3.76-7.29-6.34-15.66-13-20.47-21.54-3.54-6.29-5.76-16.8.25-22.37a12.13,12.13,0,0,1,9.83-3.07c4,.54,7.3,3.51,9.56,6.7-.13-.18-.34-.46-.48-.63A53.81,53.81,0,0,1,349.32,175a6.65,6.65,0,0,1-.36-.56c4.88,8.36,6.69,19.76,8.4,29.16.36,2,.69,3.94,1,5.92,0,.18.05.36.07.55-.1-.69-.23-1.78-.06-.47s.34,2.71.51,4.06c.25,2,.45,4,.83,6a9,9,0,0,0,4.52,6.64c2.75,1.33,6.45.84,8-2.1C373.59,221.59,373,217.63,370.1,216.21Z"/><path class="cls-2" d="M327.73,236.62H291a14.68,14.68,0,0,1-13.78,19.8,15,15,0,0,1-2.34-.2v31.42a14.71,14.71,0,1,1,0,29.41v6.42A6.12,6.12,0,0,0,281,329.6h46.75a6.12,6.12,0,0,0,6.13-6.13V242.75A6.13,6.13,0,0,0,327.73,236.62Z"/><path class="cls-7" d="M291.89,241.72a14.6,14.6,0,0,0-.92-5.1H281a6.13,6.13,0,0,0-6.13,6.13v13.47a15,15,0,0,0,2.34.2A14.7,14.7,0,0,0,291.89,241.72Z"/><circle class="cls-7" cx="312.27" cy="282.62" r="14.71"/><path class="cls-1" d="M334.33,325.24a8.94,8.94,0,0,0-6.62-6.58A8.81,8.81,0,0,0,316.92,308a8.84,8.84,0,0,0-17.16,1,7.77,7.77,0,0,0-1-.06,8.85,8.85,0,0,0-8.85,8.85c0,.11,0,.22,0,.33s-1.63.74-1.75.8a8.36,8.36,0,0,0-3.57,3.3,8.91,8.91,0,0,0,1,10.2,11.73,11.73,0,0,0,9.59,5h27.67a11.62,11.62,0,0,0,6.92-2.28,15.9,15.9,0,0,0,2.27-1.66,8.87,8.87,0,0,0,1.67-2.36A8.68,8.68,0,0,0,334.33,325.24Z"/><path class="cls-7" d="M289.56,302.34a14.71,14.71,0,0,0-14.71-14.7v29.41A14.71,14.71,0,0,0,289.56,302.34Z"/><rect class="cls-1" x="261.74" y="347.11" width="74.46" height="16.67"/><path class="cls-5" d="M271.2,382.46h65V363.78H261.74V373A9.46,9.46,0,0,0,271.2,382.46Z"/><path class="cls-5" d="M336.2,335.72a7.29,7.29,0,0,0-7.29-7.29H269a7.3,7.3,0,0,0-7.29,7.29v11.39H336.2Z"/><rect class="cls-3" x="306.1" y="216.38" width="136.89" height="166.55"/><path class="cls-1" d="M435.9,327.43c-26.3,0-46.15-8-59-23.7C365.92,290.38,360.09,271.13,360,248a144.74,144.74,0,0,1,3.15-31,2.92,2.92,0,1,1,5.69,1.35c-.12.52-11.92,51.83,12.56,81.68,12.46,15.2,32.37,22.42,59.15,21.46a2.93,2.93,0,1,1,.21,5.85C439.11,327.41,437.49,327.43,435.9,327.43Z"/><path class="cls-1" d="M358.43,383.51a2.71,2.71,0,0,1-.56-.05,2.92,2.92,0,0,1-2.31-3.43c8.49-43.73-5.51-77.6-18.74-98.31-14.42-22.56-31.11-34.89-31.27-35A2.92,2.92,0,0,1,309,242c.71.52,17.61,13,32.63,36.4,13.87,21.64,28.55,57,19.68,102.77A2.93,2.93,0,0,1,358.43,383.51Z"/><path class="cls-1" d="M329.92,383.52a3,3,0,0,1-.92-.15,2.92,2.92,0,0,1-1.86-3.69c.72-2.19,17.93-53.92,46.27-76.68a32.31,32.31,0,0,1,51.87,31.25c-2.81,14.46-11.49,30.68-25.8,48.19a2.92,2.92,0,0,1-4.52-3.7c13.69-16.76,22-32.1,24.58-45.6,2.57-13.23-4.68-22.88-12.33-27.49s-19.61-6.55-30.14,1.91c-27,21.68-44.21,73.42-44.38,73.94A2.93,2.93,0,0,1,329.92,383.52Z"/><rect class="cls-4" x="611.82" y="780.43" width="74.56" height="22.25" transform="translate(-224.45 257.89) rotate(-19.23)"/><path class="cls-6" d="M617.57,814.34l4.35,12.49a77.36,77.36,0,0,1-.56,53.53,70.4,70.4,0,0,1-6.83,13.25c-5.38,8.12-27.12,10.92-23.62,23.51a9.28,9.28,0,0,0,12,6.29L656,904.9a45.6,45.6,0,0,0,27.57-26.8l2.27-6,4.39,12.57a7.79,7.79,0,0,0,9.93,4.8l12.77-4.45a7.81,7.81,0,0,0,4.8-9.94l-4.38-12.57-5.46-15.65L705,838.48,697,815.72l-9-25.93Z"/><rect class="cls-4" x="806.48" y="775.32" width="74.56" height="22.25" transform="translate(-280.18 527.24) rotate(-30)"/><path class="cls-6" d="M817,814.72l6.61,11.45a77.37,77.37,0,0,1,9.46,52.69,71,71,0,0,1-3.86,13.37c-3.26,8.14-12.79,11.38-17.49,18.4-5.29,7.9,1.44,19.65,11.27,14l48.68-28.11A45.55,45.55,0,0,0,893.79,865l1.11-6.29,6.66,11.53a7.8,7.8,0,0,0,10.66,2.85l11.71-6.76a7.81,7.81,0,0,0,2.86-10.66l-6.66-11.53-8.28-14.34-4.46-7.72-12-20.87-13.73-23.79Z"/><rect class="cls-5" x="694.53" y="491.9" width="120.24" height="288.73" transform="translate(-217.03 462.57) rotate(-30)"/><path class="cls-5" d="M774.76,791.35c1.18,1.94,6.91,10.94,18.19,13.56,10.83,2.51,22.51-1.86,30-11.14a33.91,33.91,0,0,0,21.51-3.62,34.47,34.47,0,0,0,16-20.11,23.31,23.31,0,0,0,18.35-38.81Z"/><path class="cls-5" d="M535.82,654.24l-8.22-18.12c-20.54-45.21.67-98,47.37-117.84l154.68-65.85,18,39.65c15.14,33.31-.5,72.2-34.91,86.85Z"/><rect class="cls-5" x="547.94" y="595.1" width="116.64" height="173.92" transform="matrix(0.94, -0.33, 0.33, 0.94, -190.79, 237.68)"/><path class="cls-5" d="M579.83,783.37c2,11.78,11.52,20.66,22.81,21.6A25.56,25.56,0,0,0,627,791.42a25.54,25.54,0,0,0,16.87,3c12.14-2.19,17.66-12.82,18.28-14.08,1,.37,13.13,4.75,22.63-2.23,9.09-6.67,12-21,5.19-33.13Z"/><path class="cls-6" d="M660,512.27a2.92,2.92,0,0,1-2.92-2.92V480.76a2.92,2.92,0,0,1,5.84,0v28.59A2.92,2.92,0,0,1,660,512.27Z"/><path class="cls-6" d="M667.87,601a2.92,2.92,0,0,1-1.17-5.6l52.71-23c.17-.06,18.24-6,27.21-24.15,7-14,6.81-31.59-.46-52.2a2.92,2.92,0,0,1,5.51-1.94c7.83,22.19,7.88,41.31.15,56.83-9.77,19.6-28.44,26.3-30.49,27L669,600.71A3,3,0,0,1,667.87,601Z"/><path class="cls-6" d="M726.35,316.89h-41a25.69,25.69,0,0,1-25.69-25.69V252.67a23.12,23.12,0,0,1,23.11-23.12h42.31a24.75,24.75,0,0,1,24.74,24.75v39.11A23.48,23.48,0,0,1,726.35,316.89Z"/><path class="cls-4" d="M728.08,272.81V241.9h-42.8a25.61,25.61,0,0,0-25.61,25.62v36.39a21.62,21.62,0,0,0,21.62,21.63h46.79V300.11a13.65,13.65,0,1,0,0-27.3Z"/><path class="cls-1" d="M593.84,338.26l5.24-105.15a10.31,10.31,0,0,0-9.74-10.81l-46.18-2.46a10.3,10.3,0,0,0-10.75,8.84L515.53,347.61c3.28,19.47,17.56,34.13,33.47,36.14C570.12,386.4,593.73,366.68,593.84,338.26Z"/><path class="cls-1" d="M600.44,337.65l-84.91,10-1.09,7.72a58.72,58.72,0,0,0,1.66,25c4.68,15.74,17.77,35.2,54.08,33.08l92.07-7.5,9.8-74.87Z"/><path class="cls-7" d="M934.31,271a10.81,10.81,0,0,0-8-8,10.33,10.33,0,0,0,.31-2.51,10.72,10.72,0,0,0-10.72-10.72,11.08,11.08,0,0,0-2.66.34,10.72,10.72,0,0,0-20.79,1.23,11.46,11.46,0,0,0-1.17-.06,10.72,10.72,0,0,0-10.72,10.72c0,.13,0,.26,0,.39s-2,.9-2.12,1a10.11,10.11,0,0,0-4.32,4,10.82,10.82,0,0,0,1.17,12.36,14.23,14.23,0,0,0,11.62,6h33.51a14.11,14.11,0,0,0,8.39-2.76,21.51,21.51,0,0,0,2.75-2,10.82,10.82,0,0,0,2-2.86A10.49,10.49,0,0,0,934.31,271Z"/><path class="cls-6" d="M728.08,272.76H713.52A28.76,28.76,0,0,1,684.76,244v-7.12h43.32Z"/><ellipse class="cls-6" cx="763.05" cy="226.48" rx="28.18" ry="28.77"/><ellipse class="cls-6" cx="823.68" cy="193.08" rx="44.57" ry="45.5"/><path class="cls-6" d="M676.73,309.89a13.76,13.76,0,0,1-9.35-3.73,2.92,2.92,0,0,1,4.09-4.18c.51.49,5.06,4.48,10.95-.19a2.92,2.92,0,1,1,3.63,4.58A14.84,14.84,0,0,1,676.73,309.89Z"/><path class="cls-1" d="M742.78,480.76h-92c-20.46-20.86-24.92-39.84-26.15-49.41-2-15.94,2.67-31.44,12.2-61.8,1.95-6.19,3.88-11.94,5.73-17.19,4.57-13,17.51-21.61,31.88-21.34l68.83,1.29c21.53.41,36.88,20,31.13,39.78Z"/><rect class="cls-4" x="686.7" y="325.54" width="41.39" height="16.51"/><path class="cls-6" d="M686.7,335.62l28.77-8.47a.82.82,0,0,0-.23-1.61H686.7Z"/><path class="cls-1" d="M759.61,336.77c10.51,6.33,15.85,7.73,31.77,12.14,45.92,12.7,79.57-3.74,99.21-12.89a9.13,9.13,0,0,1,10.73,2.29L935.8,378a9.13,9.13,0,0,1-.93,12.89c-22.39,19.41-97.92,75.24-185,32.91C749.15,393.4,760.29,367.16,759.61,336.77Z"/><path class="cls-1" d="M876.34,305.23c1.79.17,6.95.32,13.25-4.41,0,0,15,18.4,30.29,0,2.23,1.84,8.43,6.41,15.19,5.13,4.9-.93,9.44-4.8,12.43-10.61v-9.81a3.11,3.11,0,0,0-3.11-3.11H863a3.11,3.11,0,0,0-3.11,3.11v6.88C863.85,299.89,870,304.64,876.34,305.23Z"/><path class="cls-2" d="M935.07,301.27c-6.76,1.29-13-3.29-15.19-5.13-15.26,18.4-30.29,0-30.29,0-6.3,4.73-11.46,4.58-13.25,4.42-6.37-.59-12.49-5.35-16.49-12.82v51.8a3.11,3.11,0,0,0,3.11,3.11h81.43a3.11,3.11,0,0,0,3.11-3.11V290.67C944.51,296.48,940,300.35,935.07,301.27Z"/><rect class="cls-5" x="896.37" y="277.64" width="12.22" height="65.01"/><path class="cls-3" d="M575.59,343.72a2.92,2.92,0,0,1-.4-5.81l18.24-2.55a2.92,2.92,0,0,1,.81,5.79L576,343.7A2.82,2.82,0,0,1,575.59,343.72Z"/><path class="cls-3" d="M625.69,411.79a2.89,2.89,0,0,1-1.11-.22,2.92,2.92,0,0,1-1.59-3.82c2.58-6.24,5.43-12.44,8.48-18.43a255.53,255.53,0,0,1,13.15-22.82,2.92,2.92,0,0,1,4.91,3.18A247.58,247.58,0,0,0,636.68,392c-3,5.85-5.77,11.91-8.29,18A2.91,2.91,0,0,1,625.69,411.79Z"/><path class="cls-4" d="M905.1,342.66a91.11,91.11,0,0,0,11.23-14.48c.63-1.08,1.18-2.2,1.71-3.34,1.68-3.65,8.11-16,12.94-3.57l10.42-20a14.33,14.33,0,0,1,3.86-4.74c3.7-2.86,9.55-4.25,9.2,16.21,0,0,1.67,34.17-24.77,58.26Z"/><path class="cls-6" d="M727.27,292.92a4.58,4.58,0,0,1-.64,0,5.51,5.51,0,1,1,.64,0Zm0-7.71a2.08,2.08,0,0,0-1.3.46,2.1,2.1,0,1,0,2.62,3.28,2.11,2.11,0,0,0,.33-2.95,2.1,2.1,0,0,0-1.41-.77Z"/><path class="cls-6" d="M723.41,289.62a1.75,1.75,0,0,1-1.74-1.62,7.9,7.9,0,0,1,12.75-6.7,1.75,1.75,0,0,1-2.2,2.73,4.39,4.39,0,0,0-7.05,3.71,1.76,1.76,0,0,1-1.62,1.88Z"/><path class="cls-8" d="M181.29,222.59v33.16a14,14,0,0,0-2.06-.17,13.75,13.75,0,0,0,0,27.5,14,14,0,0,0,2.06-.17v16.83h57.17a15.6,15.6,0,0,0,15.6-15.61V222.59Z"/><rect class="cls-8" x="181.29" y="296.04" width="48.76" height="23.73"/><path class="cls-3" d="M229.19,283.19l-.75,0a13.26,13.26,0,0,1-8.77-4.4,2.92,2.92,0,0,1,4.44-3.8,7.65,7.65,0,0,0,4.75,2.37c1.92.12,3.88-.78,5.9-2.62A2.92,2.92,0,1,1,238.7,279C235.68,281.79,232.48,283.19,229.19,283.19Z"/><path class="cls-4" d="M244.08,194.27a20.88,20.88,0,0,0-14.81,6.11,26.27,26.27,0,0,0-45.78.44,20.92,20.92,0,0,0-11.09-3.18,20.55,20.55,0,1,0,0,41.09,20.9,20.9,0,0,0,15.91-7.3,26.3,26.3,0,0,0,39.58-3.7,20.9,20.9,0,0,0,16.19,7.63,20.55,20.55,0,1,0,0-41.09Z"/><path class="cls-3" d="M179.22,274.94a5.67,5.67,0,1,1,.64,0A4.68,4.68,0,0,1,179.22,274.94Zm0-7.71-.24,0a2.1,2.1,0,0,0-1.07,3.72,2.09,2.09,0,0,0,3-.33,2.06,2.06,0,0,0,.44-1.55,2.09,2.09,0,0,0-2.08-1.86Z"/><path class="cls-3" d="M183.07,271.64h-.13a1.76,1.76,0,0,1-1.62-1.88,4.39,4.39,0,0,0-7-3.71,1.75,1.75,0,0,1-2.2-2.73,7.9,7.9,0,0,1,12.75,6.7A1.76,1.76,0,0,1,183.07,271.64Z"/><path class="cls-3" d="M230.05,299.74H198.11a1,1,0,0,0-.24,1.86l32.18,8.32Z"/><path class="cls-2" d="M270.48,430.92l-17.69,15.45A56.44,56.44,0,0,1,173.16,441q-25-30.39-49.91-60.77c-11.42-15-10.52-35.55,1.08-48.23,13.31-14.56,38-15.69,53.86-.68Q224.35,381.1,270.48,430.92Z"/><path class="cls-2" d="M340.49,425.75l-69.7,42.88a67.21,67.21,0,0,1-92.46-22h0l126.94-78.09Z"/><path class="cls-8" d="M314,382.76c-.63-1,10.83-6.95,12.14-7.57a96.25,96.25,0,0,1,21.88-6.87c5.42-1.14,11.19-3,16.93-2.81,2.29.07,6.43.25,7.94,2.24.56.74,1.44,4.07.21,4.53A122.36,122.36,0,0,1,390,367.42c4.14-.89,28.19-5.32,24.64,4.88-2.35,6.75-11.72,9.79-17.64,12.29-13.33,5.62-26.52,11-39.37,17.66L333.7,414.59l-.06,0Z"/><path class="cls-3" d="M350.6,386.49a2.92,2.92,0,0,1-1.22-5.58l21-9.66a2.92,2.92,0,1,1,2.44,5.31l-21,9.66A3,3,0,0,1,350.6,386.49Z"/><path class="cls-4" d="M149.24,559.16a2.92,2.92,0,0,1-.16-5.84c2.27-.13,14-1.27,21.94-11.41a30.72,30.72,0,0,0,6-23.16,2.92,2.92,0,0,1,5.78-.9,36.68,36.68,0,0,1-7.17,27.66c-9.27,11.82-22.41,13.43-26.21,13.65Z"/><path class="cls-5" d="M245.77,408.54,215.53,375.9a2.93,2.93,0,1,1,4.29-4l27,29.13,27.6-17a2.92,2.92,0,0,1,3.06,5Z"/><path class="cls-5" d="M232.64,481a56.39,56.39,0,0,1-21.93-4.24,55.76,55.76,0,0,1-15.84-10.2c-26.71-23.45-58.5-59.54-80.47-85.7a2.92,2.92,0,0,1,4.48-3.76c21.84,26,53.41,61.86,79.85,85.06A50,50,0,0,0,213,471.38c21.87,9.14,46.49,0,63.3-9.24a2.92,2.92,0,1,1,2.82,5.12C262.52,476.39,246.81,481,232.64,481Z"/><path class="cls-4" d="M260.73,760a2.91,2.91,0,0,1-2.53-1.46l-59-102.21a2.93,2.93,0,0,1,5.07-2.92l59,102.21a2.91,2.91,0,0,1-1.07,4A2.86,2.86,0,0,1,260.73,760Z"/><path class="cls-2" d="M115,855.85a2.9,2.9,0,0,1-2.11-.9l-14-14.6a2.92,2.92,0,1,1,4.21-4.05l14,14.6A2.91,2.91,0,0,1,117,855,2.87,2.87,0,0,1,115,855.85Z"/><path class="cls-4" d="M277.19,552.13a2.93,2.93,0,0,1-2.93-2.93V517.65a2.93,2.93,0,1,1,5.85,0V549.2A2.93,2.93,0,0,1,277.19,552.13Z"/><path class="cls-3" d="M758.25,430.51a3.07,3.07,0,0,1-1.07-.2,35.76,35.76,0,0,1-10.68-6.59,2.92,2.92,0,0,1,4-4.23,30.19,30.19,0,0,0,8.79,5.38,2.92,2.92,0,0,1-1.08,5.64Z"/><path class="cls-1" d="M625.24,828.9a2.92,2.92,0,0,1-1-5.68l63.67-22.51a2.92,2.92,0,0,1,2,5.51l-63.67,22.51A3,3,0,0,1,625.24,828.9Z"/><path class="cls-1" d="M828.33,828.61a2.92,2.92,0,0,1-1.4-5.49l59.14-32.19a2.92,2.92,0,0,1,2.79,5.13l-59.14,32.19A2.91,2.91,0,0,1,828.33,828.61Z"/><path class="cls-6" d="M627,619.71a2.93,2.93,0,0,1-1-5.67l14.37-5.3a2.92,2.92,0,1,1,2,5.48L628,619.52A2.74,2.74,0,0,1,627,619.71Z"/><path class="cls-2" d="M717.63,411.5h0l-67.17-1.13a2.91,2.91,0,0,1-2.87-3,3,3,0,0,1,3-2.87l67.16,1.12a2.93,2.93,0,0,1,0,5.85Z"/><path class="cls-2" d="M683.3,455.3h0a2.92,2.92,0,0,1-2.87-3l1.48-88.73a2.92,2.92,0,0,1,2.92-2.87h.05a2.92,2.92,0,0,1,2.88,3l-1.48,88.73A2.93,2.93,0,0,1,683.3,455.3Z"/><path class="cls-2" d="M664,429.51a2.92,2.92,0,0,1-2-5l40.17-38.86a2.92,2.92,0,1,1,4.07,4.2L666,428.69A2.89,2.89,0,0,1,664,429.51Z"/><path class="cls-2" d="M703.46,431.38a2.94,2.94,0,0,1-2.1-.89l-38.85-40.17a2.92,2.92,0,1,1,4.2-4.07l38.86,40.18a2.92,2.92,0,0,1-2.11,4.95Z"/><path class="cls-3" d="M918,398.27a2.93,2.93,0,0,1-2.24-1L877,351.11a2.92,2.92,0,0,1,4.48-3.76l38.77,46.11a2.93,2.93,0,0,1-2.24,4.81Z"/><path class="cls-3" d="M591.48,247.87h-.22L538.91,244a2.92,2.92,0,1,1,.44-5.83l52.34,3.9a2.92,2.92,0,0,1-.21,5.83Z"/><path class="cls-6" d="M558,195a2.92,2.92,0,0,1-2.58-1.54l-5-9.3a2.92,2.92,0,1,1,5.15-2.77l5,9.31a2.92,2.92,0,0,1-1.19,4A3,3,0,0,1,558,195Z"/><path class="cls-6" d="M927.25,340.64a2.93,2.93,0,0,1-2.36-4.64c3.74-5.17,3.18-14.44,3.18-14.53a2.92,2.92,0,0,1,5.83-.4c0,.47.72,11.46-4.28,18.36A2.91,2.91,0,0,1,927.25,340.64Z"/></svg>