<svg width="413" height="76" viewBox="0 0 413 76" fill="none" xmlns="http://www.w3.org/2000/svg">
<path d="M411.461 33.7255H411.434L389.501 33.3437C389.3 33.3402 389.102 33.2972 388.918 33.2172C388.734 33.1372 388.568 33.0218 388.429 32.8775C388.289 32.7332 388.18 32.5628 388.106 32.3761C388.033 32.1895 387.997 31.9901 388 31.7895C388.007 31.3851 388.174 31 388.465 30.7186C388.756 30.4373 389.146 30.2827 389.551 30.2889L411.484 30.6707C411.889 30.6738 412.276 30.8376 412.561 31.1262C412.845 31.4148 413.003 31.8045 413 32.2096C412.997 32.6147 412.833 33.002 412.544 33.2863C412.256 33.5706 411.866 33.7286 411.461 33.7255Z" fill="#FFAABE"/>
<path d="M400.254 48.0296H400.227C400.026 48.0261 399.828 47.9831 399.644 47.9031C399.46 47.8232 399.294 47.7077 399.155 47.5634C399.015 47.4191 398.906 47.2487 398.832 47.062C398.759 46.8754 398.723 46.676 398.726 46.4754L399.207 17.5007C399.214 17.1002 399.378 16.7186 399.664 16.4379C399.95 16.1572 400.334 15.9999 400.735 16H400.762C400.962 16.0035 401.161 16.0466 401.345 16.1268C401.529 16.207 401.696 16.3228 401.835 16.4675C401.975 16.6123 402.084 16.7831 402.157 16.9702C402.231 17.1573 402.266 17.357 402.262 17.5579L401.777 46.5365C401.768 46.935 401.604 47.3142 401.319 47.5931C401.035 47.872 400.652 48.0287 400.254 48.0296Z" fill="#FFAABE"/>
<path d="M393.938 39.6097C393.633 39.61 393.336 39.5192 393.083 39.349C392.83 39.1788 392.634 38.937 392.52 38.6545C392.406 38.3721 392.379 38.062 392.442 37.7641C392.506 37.4661 392.657 37.194 392.876 36.9826L405.997 24.2937C406.29 24.0213 406.678 23.8746 407.077 23.8852C407.477 23.8958 407.857 24.0628 408.135 24.3503C408.413 24.6378 408.567 25.023 408.564 25.4229C408.562 25.8229 408.402 26.2058 408.12 26.4893L394.999 39.1782C394.715 39.4544 394.334 39.6091 393.938 39.6097Z" fill="#FFAABE"/>
<path d="M406.837 40.2169C406.632 40.2176 406.429 40.1771 406.24 40.0977C406.051 40.0183 405.88 39.9017 405.737 39.7549L393.067 26.6345C392.785 26.3433 392.63 25.9521 392.637 25.5467C392.643 25.1414 392.811 24.7553 393.102 24.4732C393.393 24.1912 393.784 24.0364 394.189 24.0428C394.595 24.0492 394.981 24.2164 395.263 24.5076L407.952 37.628C408.16 37.8434 408.3 38.1154 408.355 38.4101C408.41 38.7047 408.377 39.0089 408.26 39.2849C408.143 39.5609 407.948 39.7964 407.698 39.9621C407.449 40.1278 407.156 40.2164 406.856 40.2169H406.837Z" fill="#FFAABE"/>
<path d="M205.671 38.0845H205.655L191.939 37.8457C191.813 37.8435 191.689 37.8167 191.574 37.7667C191.459 37.7166 191.355 37.6444 191.268 37.5542C191.181 37.4639 191.112 37.3574 191.066 37.2407C191.02 37.1239 190.998 36.9993 191 36.8739C191.005 36.6209 191.109 36.3801 191.291 36.2042C191.473 36.0282 191.717 35.9316 191.97 35.9354L205.686 36.1742C205.939 36.1761 206.181 36.2786 206.359 36.459C206.537 36.6395 206.636 36.8832 206.634 37.1365C206.632 37.3898 206.529 37.632 206.349 37.8098C206.168 37.9876 205.925 38.0864 205.671 38.0845Z" fill="#FFAABE"/>
<path d="M198.663 47.0296H198.646C198.521 47.0274 198.397 47.0005 198.282 46.9505C198.167 46.9005 198.063 46.8283 197.976 46.738C197.888 46.6478 197.82 46.5413 197.774 46.4245C197.728 46.3078 197.705 46.1831 197.708 46.0577L198.009 27.9384C198.013 27.688 198.115 27.4493 198.294 27.2738C198.473 27.0983 198.713 27 198.964 27H198.98C199.106 27.0022 199.23 27.0291 199.345 27.0793C199.46 27.1295 199.565 27.2019 199.652 27.2924C199.739 27.3829 199.807 27.4897 199.853 27.6067C199.899 27.7237 199.921 27.8486 199.919 27.9743L199.616 46.0959C199.61 46.3451 199.507 46.5822 199.329 46.7566C199.151 46.9311 198.912 47.029 198.663 47.0296Z" fill="#FFAABE"/>
<path d="M194.713 41.7643C194.523 41.7645 194.337 41.7077 194.179 41.6013C194.021 41.4948 193.898 41.3436 193.827 41.167C193.755 40.9903 193.738 40.7964 193.778 40.6101C193.818 40.4238 193.912 40.2536 194.049 40.1214L202.254 32.1865C202.437 32.0161 202.68 31.9244 202.93 31.931C203.18 31.9376 203.417 32.0421 203.591 32.2219C203.765 32.4017 203.862 32.6425 203.86 32.8926C203.858 33.1428 203.758 33.3822 203.582 33.5595L195.377 41.4944C195.199 41.6671 194.961 41.7639 194.713 41.7643Z" fill="#FFAABE"/>
<path d="M202.78 42.144C202.652 42.1444 202.525 42.119 202.406 42.0694C202.288 42.0198 202.181 41.9469 202.092 41.855L194.169 33.6503C193.993 33.4682 193.896 33.2235 193.9 32.97C193.904 32.7166 194.008 32.4751 194.19 32.2987C194.373 32.1223 194.617 32.0255 194.871 32.0295C195.124 32.0336 195.366 32.1381 195.542 32.3202L203.477 40.525C203.607 40.6597 203.695 40.8298 203.729 41.0141C203.763 41.1983 203.743 41.3886 203.67 41.5611C203.597 41.7337 203.474 41.881 203.318 41.9846C203.162 42.0883 202.979 42.1437 202.792 42.144H202.78Z" fill="#FFAABE"/>
<path d="M229.83 23.4714H229.81L213.141 23.1812C212.988 23.1785 212.838 23.1459 212.698 23.0851C212.558 23.0243 212.432 22.9365 212.326 22.8268C212.22 22.7172 212.137 22.5877 212.081 22.4458C212.025 22.304 211.997 22.1525 212 22C212.006 21.6926 212.133 21.3999 212.353 21.1861C212.574 20.9723 212.871 20.8549 213.178 20.8595L229.848 21.1497C230.156 21.152 230.45 21.2765 230.666 21.4959C230.882 21.7152 231.002 22.0114 231 22.3192C230.998 22.6271 230.873 22.9215 230.654 23.1375C230.434 23.3536 230.138 23.4737 229.83 23.4714Z" fill="#FFAABE"/>
<path d="M221.313 34.3425H221.293C221.14 34.3398 220.99 34.3072 220.85 34.2464C220.71 34.1856 220.584 34.0979 220.478 33.9882C220.372 33.8785 220.288 33.749 220.233 33.6071C220.177 33.4653 220.149 33.3138 220.152 33.1613L220.518 11.1405C220.523 10.8362 220.648 10.5461 220.865 10.3328C221.082 10.1195 221.374 9.99995 221.679 10H221.699C221.852 10.0026 222.002 10.0354 222.142 10.0964C222.282 10.1573 222.409 10.2453 222.515 10.3553C222.621 10.4653 222.704 10.5951 222.76 10.7374C222.815 10.8796 222.842 11.0314 222.839 11.184L222.471 33.2078C222.464 33.5106 222.339 33.7988 222.123 34.0108C221.906 34.2228 221.616 34.3418 221.313 34.3425Z" fill="#FFAABE"/>
<path d="M216.513 27.9434C216.281 27.9436 216.055 27.8746 215.863 27.7453C215.671 27.6159 215.522 27.4321 215.435 27.2174C215.349 27.0028 215.328 26.7671 215.376 26.5407C215.425 26.3142 215.539 26.1074 215.706 25.9467L225.678 16.3032C225.9 16.0962 226.195 15.9847 226.499 15.9927C226.803 16.0008 227.091 16.1277 227.303 16.3462C227.514 16.5647 227.631 16.8574 227.629 17.1614C227.627 17.4654 227.506 17.7564 227.291 17.9719L217.32 27.6154C217.103 27.8253 216.814 27.9429 216.513 27.9434Z" fill="#FFAABE"/>
<path d="M226.316 28.4049C226.16 28.4054 226.006 28.3746 225.862 28.3143C225.719 28.254 225.589 28.1654 225.48 28.0537L215.851 18.0823C215.637 17.861 215.519 17.5636 215.524 17.2556C215.529 16.9475 215.656 16.6541 215.877 16.4397C216.099 16.2253 216.396 16.1077 216.704 16.1126C217.012 16.1175 217.306 16.2445 217.52 16.4658L227.163 26.4373C227.322 26.6011 227.428 26.8078 227.47 27.0317C227.512 27.2556 227.487 27.4868 227.398 27.6966C227.309 27.9063 227.16 28.0853 226.971 28.2113C226.781 28.3372 226.558 28.4046 226.331 28.4049H226.316Z" fill="#FFAABE"/>
<path d="M272.83 35.4714H272.81L256.141 35.1812C255.988 35.1785 255.838 35.1459 255.698 35.0851C255.558 35.0243 255.432 34.9365 255.326 34.8268C255.22 34.7172 255.137 34.5877 255.081 34.4458C255.025 34.304 254.997 34.1525 255 34C255.006 33.6926 255.133 33.3999 255.353 33.1861C255.574 32.9723 255.871 32.8549 256.178 32.8595L272.848 33.1497C273.156 33.152 273.45 33.2765 273.666 33.4959C273.882 33.7152 274.002 34.0114 274 34.3192C273.998 34.6271 273.873 34.9215 273.654 35.1375C273.434 35.3536 273.138 35.4737 272.83 35.4714Z" fill="#FFAABE"/>
<path d="M264.313 46.3425H264.293C264.14 46.3398 263.99 46.3072 263.85 46.2464C263.71 46.1856 263.584 46.0979 263.478 45.9882C263.372 45.8785 263.288 45.749 263.233 45.6071C263.177 45.4653 263.149 45.3138 263.152 45.1613L263.518 23.1405C263.523 22.8362 263.648 22.5461 263.865 22.3328C264.082 22.1195 264.374 22 264.679 22H264.699C264.852 22.0026 265.002 22.0354 265.142 22.0964C265.282 22.1573 265.409 22.2453 265.515 22.3553C265.621 22.4653 265.704 22.5951 265.76 22.7374C265.815 22.8796 265.842 23.0314 265.839 23.184L265.471 45.2078C265.464 45.5106 265.339 45.7988 265.123 46.0108C264.906 46.2228 264.616 46.3418 264.313 46.3425Z" fill="#FFAABE"/>
<path d="M259.513 39.9434C259.281 39.9436 259.055 39.8746 258.863 39.7453C258.671 39.6159 258.522 39.4321 258.435 39.2174C258.349 39.0028 258.328 38.7671 258.376 38.5407C258.425 38.3142 258.539 38.1074 258.706 37.9467L268.678 28.3032C268.9 28.0962 269.195 27.9847 269.499 27.9927C269.803 28.0008 270.091 28.1277 270.303 28.3462C270.514 28.5647 270.631 28.8574 270.629 29.1614C270.627 29.4654 270.506 29.7564 270.291 29.9719L260.32 39.6154C260.103 39.8253 259.814 39.9429 259.513 39.9434Z" fill="#FFAABE"/>
<path d="M269.316 40.4049C269.16 40.4054 269.006 40.3746 268.862 40.3143C268.719 40.254 268.589 40.1654 268.48 40.0537L258.851 30.0823C258.637 29.861 258.519 29.5636 258.524 29.2556C258.529 28.9475 258.656 28.6541 258.877 28.4397C259.099 28.2253 259.396 28.1077 259.704 28.1126C260.012 28.1175 260.306 28.2445 260.52 28.4658L270.163 38.4373C270.322 38.6011 270.428 38.8078 270.47 39.0317C270.512 39.2556 270.487 39.4868 270.398 39.6966C270.309 39.9063 270.16 40.0853 269.971 40.2113C269.781 40.3372 269.558 40.4046 269.331 40.4049H269.316Z" fill="#FFAABE"/>
<path d="M378.382 23.6216H378.365L363.984 23.3713C363.853 23.369 363.723 23.3408 363.602 23.2884C363.482 23.2359 363.372 23.1602 363.281 23.0656C363.19 22.971 363.118 22.8593 363.07 22.7369C363.021 22.6145 362.998 22.4838 363 22.3523C363.005 22.0871 363.114 21.8346 363.305 21.6502C363.495 21.4657 363.751 21.3644 364.017 21.3684L378.397 21.6188C378.663 21.6208 378.917 21.7282 379.103 21.9174C379.289 22.1066 379.393 22.3621 379.391 22.6277C379.389 22.8933 379.282 23.1472 379.092 23.3336C378.903 23.52 378.648 23.6236 378.382 23.6216Z" fill="#FFAABE"/>
<path d="M371.034 33H371.017C370.885 32.9977 370.755 32.9695 370.635 32.9171C370.514 32.8647 370.405 32.789 370.314 32.6943C370.222 32.5997 370.15 32.488 370.102 32.3656C370.054 32.2432 370.03 32.1126 370.033 31.981L370.348 12.9839C370.353 12.7214 370.46 12.4711 370.648 12.2871C370.835 12.1031 371.087 12 371.35 12H371.367C371.499 12.0023 371.629 12.0305 371.75 12.0831C371.87 12.1357 371.98 12.2117 372.071 12.3065C372.162 12.4014 372.234 12.5134 372.282 12.6361C372.33 12.7588 372.354 12.8897 372.351 13.0215L372.033 32.0211C372.027 32.2823 371.919 32.5309 371.733 32.7138C371.546 32.8967 371.295 32.9994 371.034 33Z" fill="#FFAABE"/>
<path d="M366.893 27.4796C366.693 27.4798 366.498 27.4203 366.333 27.3087C366.167 27.1971 366.038 27.0385 365.964 26.8533C365.889 26.6682 365.871 26.4649 365.913 26.2695C365.954 26.0742 366.053 25.8957 366.197 25.7571L374.799 17.4378C374.991 17.2591 375.246 17.163 375.508 17.1699C375.77 17.1768 376.019 17.2863 376.201 17.4749C376.384 17.6634 376.485 17.9159 376.483 18.1781C376.481 18.4404 376.376 18.6914 376.191 18.8773L367.589 27.1967C367.403 27.3777 367.153 27.4792 366.893 27.4796Z" fill="#FFAABE"/>
<path d="M375.35 27.8777C375.216 27.8781 375.083 27.8515 374.959 27.7995C374.835 27.7474 374.723 27.671 374.629 27.5747L366.322 18.9724C366.137 18.7815 366.036 18.525 366.04 18.2593C366.044 17.9935 366.154 17.7403 366.345 17.5554C366.536 17.3705 366.792 17.269 367.058 17.2732C367.324 17.2774 367.577 17.387 367.762 17.5779L376.081 26.1802C376.218 26.3215 376.31 26.4998 376.346 26.693C376.382 26.8862 376.36 27.0857 376.283 27.2666C376.207 27.4475 376.079 27.602 375.915 27.7106C375.751 27.8193 375.559 27.8774 375.363 27.8777H375.35Z" fill="#FFAABE"/>
<path d="M6.32561 54.7653L0.590142 63.2332L6.35619 67.1384L6.806 66.4722C5.74297 62.9921 5.90071 58.4435 6.32561 54.7653Z" fill="#EDEAD9"/>
<path d="M16.1341 40.2871L6.94375 53.8639L6.33104 54.7669C5.90614 58.4451 5.7484 62.9937 6.81143 66.4737L12.62 57.9019C13.9527 55.9279 15.2858 53.953 16.619 51.9771C15.5524 48.4991 15.7107 43.9597 16.1341 40.2871Z" fill="#FD510C"/>
<path d="M42.4457 33.0341L42.4995 33.0696C43.1333 33.4817 43.9026 33.6311 44.6446 33.4862C45.3866 33.3413 46.0432 32.9135 46.4754 32.2932C47.2839 31.1322 48.3047 29.6514 49.3054 28.1441C46.6945 28.7196 43.701 29.5754 41.127 30.8118C41.1609 31.2588 41.2976 31.6918 41.5263 32.0773C41.755 32.4627 42.0697 32.7902 42.4457 33.0341Z" fill="#EDEAD9"/>
<path d="M34.2685 13.7606C33.9665 14.1378 33.6716 14.522 33.3839 14.9132C30.126 19.3545 27.0645 23.9631 23.9988 28.5644C23.4369 31.9889 22.8806 37.1813 23.6803 41.4077C24.9415 39.521 26.2075 37.6387 27.4783 35.7606C27.8847 35.1551 28.3954 34.3967 29.0589 33.417C31.7494 29.4506 33.398 27.0105 34.3809 25.5919C33.5196 21.9217 33.8091 17.309 34.2685 13.7606Z" fill="#FD510C"/>
<path d="M53.1303 21.5757C53.5084 20.5217 53.6934 19.4083 53.6764 18.2887C53.5538 11.8503 47.3147 7.22446 41.3954 8.64974C41.2374 11.3203 41.2987 14.1853 41.874 16.6394C42.4634 16.246 43.1701 16.0671 43.8757 16.1328C45.3392 16.2959 46.6858 17.57 47.0578 18.8815C47.4106 20.1185 46.8878 21.3047 44.2328 25.2173C43.5404 26.2375 42.6812 27.4753 41.6675 28.8737C41.2611 29.4338 41.0676 30.1204 41.1215 30.8103C43.6955 29.5738 46.6889 28.718 49.2998 28.1425C49.4318 27.9427 49.5665 27.7437 49.6948 27.546C50.9933 25.591 52.4 23.7162 53.1303 21.5757Z" fill="#FD510C"/>
<path d="M41.3953 8.6497C40.5668 8.84763 39.7689 9.15709 39.0237 9.56963C37.1602 10.5956 35.6304 12.1088 34.281 13.7699C33.8118 17.3096 33.5223 21.9224 34.4019 25.6035C34.6957 25.1819 34.9317 24.8412 35.1167 24.5893C38.1686 20.3882 40.1207 17.7039 41.8783 16.6345C41.2986 14.1853 41.2499 11.3297 41.3953 8.6497Z" fill="#EDEAD9"/>
<path d="M24.0171 28.5753C22.6605 30.6233 21.3099 32.6488 19.9425 34.6698L16.1359 40.2814C15.7125 43.954 15.5542 48.4934 16.6208 51.9714C18.9862 48.4534 21.3488 44.9347 23.7086 41.4152C22.8989 37.1922 23.4552 31.9998 24.0171 28.5753Z" fill="#EDEAD9"/>
<path d="M143.088 22.4501C144.972 23.1925 145.852 25.4901 146.095 26.8982C146.251 27.8659 146.304 28.8434 146.253 29.8179C146.238 30.1232 146.327 30.4264 146.51 30.6887C146.692 30.951 146.96 31.1604 147.279 31.2899C147.597 31.4194 147.952 31.4633 148.297 31.4157C148.642 31.3682 148.962 31.2315 149.216 31.0231C150.021 30.3533 150.9 29.7533 151.839 29.2314C153.196 28.4848 155.75 27.5956 157.626 28.3505C159.503 29.1055 160.679 31.7284 160.529 35.2403C160.517 35.538 160.604 35.8333 160.779 36.0901C160.955 36.347 161.212 36.5542 161.519 36.6866C161.827 36.8189 162.17 36.8707 162.509 36.8354C162.847 36.8001 163.165 36.6794 163.424 36.488C165.856 34.6515 168.761 33.355 171.897 32.7073C173.461 32.382 175.066 32.2248 176.678 32.2391C177.013 32.2421 177.342 32.1609 177.625 32.0052C177.907 31.8496 178.132 31.6259 178.272 31.3608C178.413 31.0957 178.463 30.8003 178.417 30.5095C178.37 30.2187 178.23 29.9448 178.011 29.7202C174.938 26.6196 173.239 22.6649 173.226 18.5836C173.222 18.3029 173.129 18.0279 172.958 17.7887C172.788 17.5494 172.545 17.3551 172.258 17.2268C171.971 17.0985 171.65 17.0412 171.329 17.0612C171.009 17.0811 170.702 17.1775 170.442 17.3399C167.725 19.0705 164.366 19.4748 162.006 18.4776C159.421 17.3824 157.595 14.4342 157.736 11.1723C157.744 10.9296 157.673 10.6892 157.531 10.4791C157.39 10.2689 157.183 10.0976 156.935 9.98507C156.688 9.87254 156.409 9.82342 156.132 9.8434C155.855 9.86338 155.592 9.95164 155.371 10.0979C154.056 11.0227 152.587 11.7678 151.013 12.308C148.781 13.0549 147.901 12.7918 147.467 12.5771C146.023 11.8828 145.006 10.7226 144.535 8.5168C144.491 8.29491 144.392 8.08375 144.244 7.89825C144.096 7.71275 143.904 7.55746 143.681 7.4434C143.458 7.32934 143.21 7.25928 142.953 7.23821C142.697 7.21714 142.438 7.24557 142.197 7.32147C138.216 8.64854 134.4 10.3203 130.806 12.3119L130.656 12.3835C128.335 13.3646 125.424 14.7608 125.673 15.8097C125.922 16.8585 129.217 16.3813 131.27 17.9386C132.315 18.7339 133.275 20.2322 133.156 23.3023C133.146 23.5988 133.235 23.8923 133.412 24.1474C133.588 24.4025 133.845 24.6083 134.15 24.7401C134.456 24.8719 134.798 24.9241 135.135 24.8904C135.473 24.8566 135.79 24.7384 136.051 24.55C138.718 22.548 141.349 21.7579 143.088 22.4501Z" fill="#129277"/>
<path d="M119.242 21.5836C117.324 22.1879 116.288 24.4159 115.946 25.8027C115.718 26.7561 115.595 27.7275 115.578 28.7034C115.569 29.0088 115.457 29.3042 115.257 29.5519C115.056 29.7996 114.776 29.9885 114.451 30.0944C114.127 30.2003 113.773 30.2185 113.435 30.1467C113.097 30.0748 112.79 29.9162 112.553 29.691C111.807 28.9649 110.983 28.3031 110.095 27.7147C108.798 26.8717 106.344 25.8005 104.425 26.4175C102.507 27.0346 101.169 29.5662 101.063 33.0797C101.054 33.3775 100.947 33.6657 100.754 33.9092C100.562 34.1526 100.292 34.3408 99.9788 34.4506C99.6655 34.5604 99.3217 34.5871 98.9896 34.5275C98.6574 34.4679 98.3513 34.3245 98.1086 34.1148C95.8345 32.1061 93.0512 30.6028 89.9924 29.7314C88.4689 29.2939 86.8922 29.0211 85.2972 28.919C84.9649 28.8977 84.6457 28.7929 84.3773 28.6172C84.1089 28.4416 83.9026 28.2023 83.7829 27.9277C83.6632 27.6532 83.6351 27.3549 83.7019 27.0682C83.7687 26.7815 83.9276 26.5185 84.1598 26.3103C87.4244 23.44 89.3912 19.6184 89.6984 15.5487C89.7248 15.2691 89.8377 15.0018 90.0248 14.7759C90.2119 14.55 90.4661 14.374 90.7598 14.267C91.0535 14.16 91.3756 14.1261 91.6913 14.1689C92.0069 14.2117 92.3041 14.3296 92.5505 14.5099C95.1128 16.4322 98.3995 17.078 100.814 16.2543C103.45 15.3487 105.469 12.5402 105.566 9.27675C105.575 9.03412 105.663 8.79949 105.818 8.60013C105.974 8.40076 106.191 8.24484 106.444 8.15051C106.697 8.05619 106.976 8.02732 107.248 8.06725C107.521 8.10719 107.775 8.21429 107.983 8.37612C109.216 9.39501 110.616 10.2445 112.135 10.8954C114.289 11.8016 115.179 11.6029 115.623 11.4201C117.102 10.832 118.184 9.74805 118.817 7.58234C118.876 7.3636 118.989 7.15942 119.148 6.98443C119.307 6.80945 119.508 6.66799 119.738 6.5702C119.967 6.47241 120.219 6.42071 120.474 6.4188C120.73 6.41688 120.984 6.46481 121.217 6.55914C125.058 8.17319 128.712 10.1162 132.125 12.3598L132.268 12.442C134.494 13.5884 137.272 15.1912 136.943 16.2191C136.614 17.2469 133.403 16.5333 131.252 17.9378C130.161 18.6556 129.11 20.0808 129.006 23.1515C128.994 23.4479 128.885 23.7342 128.692 23.9759C128.499 24.2175 128.23 24.4043 127.918 24.5136C127.606 24.623 127.264 24.6503 126.933 24.5923C126.602 24.5343 126.296 24.3934 126.052 24.1866C123.587 21.9982 121.041 21.02 119.242 21.5836Z" fill="#129277"/>
<path d="M123.992 11.7434C124.346 11.789 124.675 11.9515 124.927 12.2051C125.178 12.4587 125.338 12.789 125.38 13.1435C125.422 13.4981 125.345 13.8567 125.161 14.1624C124.976 14.4681 124.695 14.7035 124.362 14.8313L94.0413 26.297C93.8428 26.3787 93.6299 26.4198 93.4152 26.4177C93.2006 26.4156 92.9885 26.3704 92.7917 26.2848C92.5948 26.1992 92.4171 26.075 92.2691 25.9195C92.1211 25.7639 92.0059 25.5802 91.9303 25.3793C91.8546 25.1784 91.8201 24.9644 91.8287 24.7499C91.8373 24.5354 91.8889 24.3248 91.9804 24.1306C92.0719 23.9364 92.2015 23.7626 92.3614 23.6194C92.5214 23.4762 92.7085 23.3666 92.9116 23.2971L123.232 11.8313C123.474 11.7395 123.735 11.7093 123.992 11.7434Z" fill="#3A140F"/>
<path d="M140.836 12.2207C140.478 12.2357 140.135 12.3703 139.863 12.603C139.59 12.8358 139.403 13.1532 139.332 13.5046C139.261 13.856 139.309 14.2211 139.47 14.5416C139.631 14.8621 139.894 15.1195 140.219 15.2727L169.508 29.1737C169.698 29.2649 169.904 29.3178 170.115 29.3293C170.325 29.3408 170.536 29.3107 170.735 29.2407C170.934 29.1708 171.117 29.0623 171.274 28.9216C171.431 28.7808 171.559 28.6105 171.65 28.4204C171.741 28.2302 171.794 28.024 171.806 27.8135C171.817 27.6029 171.787 27.3921 171.717 27.1932C171.647 26.9943 171.539 26.8111 171.398 26.6541C171.257 26.4971 171.087 26.3693 170.897 26.2781L141.614 12.3773C141.372 12.2603 141.105 12.2064 140.836 12.2207Z" fill="#3A140F"/>
<path d="M124.482 2.33895C120.386 2.19013 116.945 5.38992 116.796 9.48587C116.647 13.5818 119.847 17.0229 123.943 17.1717C128.039 17.3205 131.48 14.1207 131.629 10.0248C131.778 5.92884 128.578 2.48777 124.482 2.33895Z" fill="#FD510C"/>
<path d="M131.601 14.6706C127.505 14.5218 124.064 17.7216 123.915 21.8175C123.766 25.9135 126.966 29.3546 131.062 29.5034C135.158 29.6522 138.599 26.4524 138.748 22.3564C138.897 18.2605 135.697 14.8194 131.601 14.6706Z" fill="#FD510C"/>
<path d="M138.584 1.95909C134.488 1.81027 131.047 5.01004 130.898 9.10599C130.749 13.2019 133.949 16.643 138.045 16.7918C142.141 16.9406 145.582 13.7409 145.731 9.6449C145.88 5.54895 142.68 2.10791 138.584 1.95909Z" fill="#FD510C"/>
</svg>
