<svg width="429" height="84" viewBox="0 0 429 84" fill="none" xmlns="http://www.w3.org/2000/svg">
<path d="M61.8109 62.2505C47.6289 62.2664 33.481 60.8596 19.5798 58.0512C7.98266 55.6716 1.38273 53.152 1.12378 53.068C0.909166 52.9857 0.712858 52.862 0.546063 52.7039C0.379268 52.5458 0.245259 52.3564 0.151672 52.1464C0.058086 51.9365 0.00675242 51.7102 0.000622575 51.4805C-0.00550727 51.2507 0.0336791 51.022 0.115939 50.8074C0.198199 50.5928 0.321917 50.3965 0.480043 50.2297C0.638169 50.0629 0.827611 49.9289 1.03753 49.8353C1.24745 49.7417 1.47374 49.6904 1.7035 49.6842C1.93325 49.6781 2.16197 49.7173 2.37658 49.7996C2.63554 49.8975 29.0142 59.7939 68.2149 58.6251C91.4 57.9058 114.333 53.5921 136.195 45.8382C163.826 36.0818 190.324 20.7963 214.953 0.401573C215.311 0.105507 215.772 -0.0361042 216.235 0.00786597C216.698 0.0518361 217.124 0.277801 217.42 0.636051C217.716 0.9943 217.858 1.45549 217.814 1.91816C217.77 2.38083 217.544 2.80708 217.186 3.10315C192.2 23.7848 165.31 39.2803 137.252 49.1697C115.03 57.0451 91.7176 61.4156 68.1519 62.1245C65.9962 62.2132 63.8826 62.2552 61.8109 62.2505Z" fill="#3A140F"/>
<path d="M41.6962 75.4923C45.836 75.4923 49.192 72.1363 49.192 67.9965C49.192 63.8567 45.836 60.5007 41.6962 60.5007C37.5564 60.5007 34.2004 63.8567 34.2004 67.9965C34.2004 72.1363 37.5564 75.4923 41.6962 75.4923Z" fill="#FC839C"/>
<path d="M98.6318 73.3927C102.772 73.3927 106.128 70.0367 106.128 65.8969C106.128 61.7571 102.772 58.4011 98.6318 58.4011C94.492 58.4011 91.136 61.7571 91.136 65.8969C91.136 70.0367 94.492 73.3927 98.6318 73.3927Z" fill="#FD510C"/>
<path d="M150.64 58.9611C154.78 58.9611 158.136 55.6051 158.136 51.4653C158.136 47.3255 154.78 43.9695 150.64 43.9695C146.5 43.9695 143.145 47.3255 143.145 51.4653C143.145 55.6051 146.5 58.9611 150.64 58.9611Z" fill="#D95F78"/>
<path d="M392.215 56.1834C388.766 54.3948 385.503 52.2714 382.47 49.8439C373.561 42.6998 369.671 35.4235 369.507 35.1174C369.399 34.9142 369.333 34.6918 369.312 34.463C369.29 34.2341 369.314 34.0033 369.382 33.7837C369.45 33.5641 369.56 33.36 369.707 33.183C369.853 33.0061 370.033 32.8597 370.237 32.7524C370.44 32.645 370.662 32.5787 370.891 32.5573C371.12 32.5359 371.351 32.5598 371.57 32.6275C371.79 32.6953 371.994 32.8057 372.171 32.9524C372.348 33.0991 372.494 33.2792 372.602 33.4824C372.638 33.5487 376.398 40.5287 384.782 47.2112C395.981 56.1736 409.708 60.3527 425.566 59.6928C425.799 59.6778 426.032 59.7095 426.253 59.786C426.473 59.8625 426.676 59.9824 426.849 60.1384C427.023 60.2945 427.163 60.4836 427.262 60.6947C427.362 60.9058 427.418 61.1347 427.427 61.3677C427.436 61.6008 427.399 61.8334 427.318 62.0519C427.236 62.2704 427.111 62.4703 426.951 62.6399C426.791 62.8095 426.599 62.9454 426.385 63.0396C426.172 63.1338 425.942 63.1844 425.709 63.1883C411.52 63.7604 400.428 60.4436 392.215 56.1834Z" fill="#3A140F"/>
<path d="M374.343 61.6969C378.018 63.603 382.542 62.1691 384.448 58.4942C386.355 54.8193 384.921 50.295 381.246 48.3889C377.571 46.4828 373.047 47.9167 371.14 51.5916C369.234 55.2665 370.668 59.7907 374.343 61.6969Z" fill="#EE9334"/>
<path d="M403.349 75.5594C407.024 77.4655 411.549 76.0316 413.455 72.3568C415.361 68.6819 413.927 64.1576 410.252 62.2515C406.577 60.3454 402.053 61.7793 400.147 65.4541C398.241 69.129 399.675 73.6533 403.349 75.5594Z" fill="#FFAABE"/>
<path d="M208.669 45.2952C208.4 45.2952 208.142 45.1883 207.951 44.9979C207.761 44.8075 207.654 44.5492 207.654 44.2799V32.0153C207.654 31.746 207.761 31.4878 207.951 31.2974C208.142 31.107 208.4 31 208.669 31C208.938 31 209.197 31.107 209.387 31.2974C209.577 31.4878 209.684 31.746 209.684 32.0153V44.2935C209.681 44.5604 209.572 44.8152 209.382 45.0027C209.192 45.1901 208.936 45.2952 208.669 45.2952Z" fill="#3A140F"/>
<path d="M211.18 49.6812H205.765V45.9044C205.765 45.4747 205.936 45.0625 206.239 44.7581C206.542 44.4536 206.953 44.2817 207.383 44.2799H209.583C210.013 44.2817 210.424 44.4536 210.727 44.7581C211.03 45.0625 211.201 45.4747 211.201 45.9044L211.18 49.6812Z" fill="#EE9334"/>
<path d="M210.26 61.1202L210.361 61.242C210.361 61.2759 213.502 65.0663 217.313 65.0663C219.492 65.0663 221.638 63.7803 223.695 61.2285C223.767 61.1468 223.844 61.0699 223.926 60.9984C223.561 57.5629 222.059 54.3477 219.658 51.8629C217.258 49.3781 214.097 47.766 210.676 47.2824C207.255 46.7989 203.771 47.4715 200.776 49.1936C197.781 50.9157 195.447 53.5886 194.144 56.7883C195.604 56.049 197.201 55.6182 198.834 55.5226C202.814 55.3331 206.652 57.2147 210.26 61.1202Z" fill="#FFAABE"/>
<path d="M217.245 69.8245C211.465 69.8245 207.268 64.985 206.693 64.2878C204.134 61.5059 201.589 60.1319 199.092 60.2673C196.262 60.4027 194.015 62.3994 193 63.4688C193.176 67.0259 194.571 70.414 196.951 73.0637C199.331 75.7134 202.55 77.4632 206.068 78.0191C209.585 78.5749 213.187 77.903 216.268 76.1161C219.349 74.3292 221.721 71.5363 222.985 68.2068C221.274 69.2719 219.301 69.8412 217.286 69.8516L217.245 69.8245Z" fill="#FFAABE"/>
<path d="M223.899 61.0186C223.817 61.0901 223.74 61.167 223.669 61.2487C221.638 63.8005 219.465 65.0865 217.286 65.0865C213.475 65.0865 210.361 61.2961 210.334 61.2622L210.26 61.1201C206.679 57.1943 202.815 55.3127 198.848 55.5225C197.214 55.6181 195.618 56.0489 194.158 56.7882C193.393 58.6502 193.003 60.644 193.007 62.6566C193.007 62.9183 193.007 63.1823 193.007 63.4485C194.022 62.3791 196.269 60.3823 199.099 60.247C201.596 60.1116 204.141 61.4856 206.7 64.2675C207.275 64.9444 211.438 69.7839 217.252 69.8042H217.293C219.308 69.7938 221.281 69.2244 222.992 68.1594C223.659 66.4016 224.001 64.5369 224 62.6566C223.997 62.1091 223.963 61.5623 223.899 61.0186Z" fill="#FD510C"/>
</svg>
