<svg width="186" height="181" viewBox="0 0 186 181" fill="none" xmlns="http://www.w3.org/2000/svg">
<path d="M119.526 19.6705H92.5258V32.5425C92.5255 32.835 92.5829 33.1247 92.6946 33.395C92.8064 33.6653 92.9703 33.9109 93.177 34.1178C93.3838 34.3248 93.6292 34.4889 93.8994 34.6009C94.1696 34.7129 94.4593 34.7705 94.7518 34.7705H122.396C122.987 34.7705 123.553 34.5358 123.971 34.118C124.389 33.7001 124.624 33.1334 124.624 32.5425V19.6705H119.526Z" fill="#FFAABE"/>
<path d="M122.396 14.7605H94.7517C94.1614 14.7605 93.5952 14.995 93.1777 15.4125C92.7603 15.8299 92.5258 16.3961 92.5258 16.9865V19.6705H124.624V16.9865C124.624 16.694 124.566 16.4044 124.454 16.1342C124.342 15.864 124.178 15.6185 123.971 15.4118C123.764 15.205 123.519 15.0411 123.248 14.9294C122.978 14.8176 122.688 14.7602 122.396 14.7605Z" fill="#EDEAD9"/>
<path d="M97.6257 34.5845C97.4709 34.5845 97.3223 34.523 97.2128 34.4135C97.1033 34.304 97.0417 34.1554 97.0417 34.0005V22.0565C97.0417 21.9016 97.1033 21.7531 97.2128 21.6436C97.3223 21.5341 97.4709 21.4725 97.6257 21.4725C97.7806 21.4725 97.9292 21.5341 98.0387 21.6436C98.1482 21.7531 98.2097 21.9016 98.2097 22.0565V34.0025C98.2092 34.1571 98.1474 34.3051 98.038 34.4142C97.9285 34.5233 97.7803 34.5845 97.6257 34.5845Z" fill="#FD510C"/>
<path d="M102.006 34.5845C101.929 34.5848 101.853 34.5699 101.782 34.5406C101.711 34.5114 101.647 34.4684 101.592 34.4141C101.538 34.3598 101.495 34.2953 101.466 34.2243C101.437 34.1534 101.422 34.0773 101.422 34.0005V22.0565C101.422 21.9016 101.483 21.7531 101.593 21.6436C101.702 21.5341 101.851 21.4725 102.006 21.4725C102.161 21.4725 102.309 21.5341 102.419 21.6436C102.528 21.7531 102.59 21.9016 102.59 22.0565V34.0025C102.589 34.1571 102.528 34.3051 102.418 34.4142C102.309 34.5233 102.16 34.5845 102.006 34.5845Z" fill="#FD510C"/>
<path d="M106.38 34.5845C106.303 34.5848 106.227 34.5699 106.156 34.5406C106.085 34.5114 106.02 34.4684 105.966 34.4141C105.912 34.3598 105.869 34.2953 105.84 34.2243C105.81 34.1534 105.795 34.0773 105.796 34.0005V22.0565C105.796 21.9016 105.857 21.7531 105.967 21.6436C106.076 21.5341 106.225 21.4725 106.38 21.4725C106.535 21.4725 106.683 21.5341 106.793 21.6436C106.902 21.7531 106.964 21.9016 106.964 22.0565V34.0025C106.963 34.1571 106.901 34.3051 106.792 34.4142C106.682 34.5233 106.534 34.5845 106.38 34.5845Z" fill="#FD510C"/>
<path d="M110.766 34.5845C110.689 34.5848 110.613 34.5699 110.542 34.5406C110.471 34.5114 110.407 34.4684 110.352 34.4141C110.298 34.3598 110.255 34.2953 110.226 34.2243C110.196 34.1534 110.182 34.0773 110.182 34.0005V22.0565C110.182 21.9016 110.243 21.7531 110.353 21.6436C110.462 21.5341 110.611 21.4725 110.766 21.4725C110.921 21.4725 111.069 21.5341 111.179 21.6436C111.288 21.7531 111.35 21.9016 111.35 22.0565V34.0025C111.349 34.1571 111.287 34.3051 111.178 34.4142C111.069 34.5233 110.92 34.5845 110.766 34.5845Z" fill="#FD510C"/>
<path d="M115.146 34.5845C115.069 34.5848 114.993 34.5699 114.922 34.5406C114.851 34.5114 114.787 34.4684 114.732 34.4141C114.678 34.3598 114.635 34.2953 114.606 34.2243C114.576 34.1534 114.562 34.0773 114.562 34.0005V22.0565C114.562 21.9016 114.623 21.7531 114.733 21.6436C114.842 21.5341 114.991 21.4725 115.146 21.4725C115.301 21.4725 115.449 21.5341 115.559 21.6436C115.668 21.7531 115.73 21.9016 115.73 22.0565V34.0025C115.729 34.1571 115.667 34.3051 115.558 34.4142C115.449 34.5233 115.3 34.5845 115.146 34.5845Z" fill="#FD510C"/>
<path d="M119.526 34.5845C119.449 34.5848 119.373 34.5699 119.302 34.5407C119.231 34.5114 119.166 34.4685 119.111 34.4142C119.057 34.3599 119.014 34.2955 118.984 34.2245C118.955 34.1535 118.94 34.0774 118.94 34.0005V22.0565C118.948 21.9073 119.014 21.767 119.123 21.6645C119.231 21.5619 119.375 21.5048 119.525 21.5048C119.674 21.5048 119.818 21.5619 119.927 21.6645C120.036 21.767 120.101 21.9073 120.11 22.0565V34.0025C120.109 34.1571 120.047 34.3051 119.938 34.4142C119.828 34.5233 119.68 34.5845 119.526 34.5845Z" fill="#FD510C"/>
<path d="M124.58 19.6705H92.5636C92.4886 20.1207 92.5229 20.5824 92.6636 21.0165C92.8183 21.5092 93.1015 21.9517 93.484 22.2985C93.8666 22.6454 94.3346 22.8841 94.84 22.99C95.3454 23.0959 95.8698 23.0653 96.3595 22.9012C96.8491 22.7371 97.2861 22.4456 97.6256 22.0565C97.8987 22.3687 98.2355 22.6188 98.6132 22.7902C98.9909 22.9616 99.4008 23.0503 99.8156 23.0503C100.23 23.0503 100.64 22.9616 101.018 22.7902C101.396 22.6188 101.732 22.3687 102.006 22.0565C102.279 22.368 102.615 22.6175 102.992 22.7885C103.369 22.9594 103.779 23.0479 104.193 23.0479C104.607 23.0479 105.016 22.9594 105.393 22.7885C105.77 22.6175 106.107 22.368 106.38 22.0565C106.653 22.3687 106.989 22.6188 107.367 22.7902C107.745 22.9616 108.155 23.0503 108.57 23.0503C108.984 23.0503 109.394 22.9616 109.772 22.7902C110.15 22.6188 110.487 22.3687 110.76 22.0565C111.033 22.3687 111.369 22.6188 111.747 22.7902C112.125 22.9616 112.535 23.0503 112.95 23.0503C113.364 23.0503 113.774 22.9616 114.152 22.7902C114.53 22.6188 114.866 22.3687 115.14 22.0565C115.413 22.3686 115.749 22.6188 116.127 22.7901C116.504 22.9615 116.914 23.0502 117.329 23.0502C117.743 23.0502 118.153 22.9615 118.531 22.7901C118.908 22.6188 119.245 22.3686 119.518 22.0565C119.935 22.5309 120.495 22.8569 121.113 22.9852C121.732 23.1136 122.375 23.0373 122.946 22.768C123.518 22.4987 123.986 22.0509 124.281 21.4922C124.575 20.9335 124.68 20.2941 124.58 19.6705Z" fill="#EDEAD9"/>
<path d="M104.78 28.6005C103.03 27.5005 101.396 26.2265 99.6096 25.1865C98.6796 24.6465 97.0556 24.1685 96.9176 25.7365C96.8758 26.1375 96.945 26.5422 97.1176 26.9065C97.4896 27.7065 99.7176 31.4765 102.896 36.5505C104.888 36.6292 106.895 36.7185 108.918 36.8185C110.33 36.8878 111.734 36.9625 113.13 37.0425C111.78 34.4565 110.634 31.7765 109.18 29.2565C108.642 28.3165 106.716 24.3325 105.196 25.0445C104.694 25.2805 104.396 26.0225 104.384 26.5445C104.38 26.9285 104.426 28.3785 104.78 28.6005Z" fill="#BC4632"/>
<path d="M113.676 4.32443C113.605 4.02953 113.453 3.76012 113.238 3.54615C113.023 3.33218 112.753 3.18205 112.458 3.11243C112.489 2.9875 112.505 2.85923 112.506 2.73043C112.506 2.51647 112.464 2.30461 112.382 2.10696C112.3 1.90931 112.18 1.72975 112.028 1.57855C111.877 1.42735 111.697 1.30748 111.499 1.22578C111.302 1.14408 111.09 1.10217 110.876 1.10243C110.741 1.10267 110.606 1.12015 110.476 1.15443C110.369 0.804765 110.149 0.501039 109.849 0.292145C109.549 0.0832509 109.187 -0.0186607 108.823 0.00281409C108.458 0.0242889 108.111 0.167901 107.837 0.410534C107.564 0.653168 107.38 0.980707 107.316 1.34043C107.257 1.33406 107.197 1.33072 107.138 1.33043C106.706 1.33096 106.292 1.50293 105.987 1.80855C105.681 2.11418 105.51 2.52848 105.51 2.96043C105.51 2.98043 105.51 3.00043 105.51 3.02043C105.51 3.04043 105.212 3.15643 105.19 3.16843C104.916 3.29877 104.687 3.50762 104.532 3.76843C104.365 4.06208 104.293 4.39984 104.326 4.73582C104.358 5.07181 104.493 5.38974 104.712 5.64643C104.911 5.92968 105.175 6.16083 105.482 6.32029C105.789 6.47975 106.13 6.56281 106.476 6.56243H111.568C112.027 6.56275 112.474 6.41629 112.844 6.14443C112.991 6.05422 113.13 5.95186 113.26 5.83843C113.386 5.71178 113.49 5.56513 113.568 5.40443C113.729 5.06801 113.767 4.68602 113.676 4.32443Z" fill="#FFAABE"/>
<path d="M115.498 8.75256H102.542V11.6546H115.498V8.75256Z" fill="#FD510C"/>
<path d="M115.498 11.6545H102.542V14.9045H115.498V11.6545Z" fill="#129277"/>
<path d="M115.498 6.77056C115.498 6.60405 115.465 6.43916 115.401 6.28532C115.338 6.13148 115.244 5.9917 115.126 5.87395C115.009 5.75621 114.869 5.66281 114.715 5.59908C114.561 5.53536 114.396 5.50256 114.23 5.50256H103.81C103.643 5.50256 103.478 5.53536 103.325 5.59908C103.171 5.66281 103.031 5.75621 102.913 5.87395C102.795 5.9917 102.702 6.13148 102.638 6.28532C102.575 6.43916 102.542 6.60405 102.542 6.77056V8.75256H115.498V6.77056Z" fill="#129277"/>
<path d="M110.004 5.05651C109.705 5.04905 109.416 4.94602 109.18 4.76251C108.844 4.82259 108.498 4.77919 108.187 4.63807C107.877 4.49695 107.617 4.26478 107.441 3.97235C107.266 3.67992 107.183 3.34104 107.205 3.00067C107.226 2.6603 107.351 2.33451 107.562 2.06651C107.606 2.00078 107.664 1.94485 107.731 1.90212C107.798 1.85939 107.873 1.83075 107.952 1.81795C108.03 1.80515 108.111 1.80845 108.188 1.82766C108.265 1.84687 108.337 1.88158 108.401 1.92967C108.464 1.97777 108.517 2.03825 108.556 2.10744C108.595 2.17662 108.62 2.25306 108.629 2.33209C108.637 2.41113 108.63 2.49111 108.607 2.56717C108.583 2.64323 108.545 2.71377 108.494 2.77451C108.417 2.87036 108.375 2.9896 108.375 3.11251C108.375 3.23542 108.417 3.35465 108.494 3.45051C108.569 3.52992 108.667 3.58422 108.774 3.60604C108.882 3.62786 108.993 3.61616 109.094 3.57251L109.494 3.40451L109.78 3.74251C109.836 3.81561 109.916 3.86769 110.006 3.89051C110.052 3.8849 110.096 3.8658 110.131 3.83557C110.167 3.80535 110.193 3.76533 110.206 3.72051C110.25 3.57093 110.352 3.44517 110.49 3.37091C110.627 3.29664 110.788 3.27995 110.938 3.32451C111.087 3.36906 111.213 3.47122 111.287 3.60849C111.362 3.74577 111.378 3.90693 111.334 4.05651C111.257 4.32126 111.103 4.55739 110.893 4.73529C110.682 4.91318 110.424 5.02493 110.15 5.05651C110.101 5.05935 110.052 5.05935 110.004 5.05651Z" fill="#FD510C"/>
<path d="M87.0676 165.777C85.9376 166.071 84.6956 166.467 83.0996 166.031C82.3885 165.831 81.7247 165.491 81.1476 165.031C80.4745 164.49 79.9111 163.825 79.4876 163.073C79.1676 162.513 78.8463 161.953 78.5236 161.395L66.0876 166.887L69.1216 173.755L71.4256 178.973L95.0036 168.559C93.4616 165.673 90.0556 164.999 87.0676 165.777Z" fill="#3A140F"/>
<path d="M71.4258 178.972L71.5038 179.15C71.6768 179.54 71.9972 179.846 72.395 180C72.7927 180.154 73.2353 180.144 73.6258 179.972L84.9798 174.954L94.5098 170.754C94.8364 170.609 95.0923 170.341 95.2213 170.008C95.3502 169.674 95.3418 169.303 95.1978 168.976C95.1358 168.834 95.0678 168.7 94.9978 168.576L71.4258 178.972Z" fill="#FFAABE"/>
<path d="M17.9237 169.962C17.3097 168.962 16.5657 167.9 16.5117 166.246C16.4913 165.508 16.6206 164.773 16.8917 164.086C17.2092 163.284 17.6777 162.549 18.2717 161.922L19.5897 160.506L10.6717 150.256L5.00571 155.17L0.699707 158.912L17.6077 178.366C19.9117 176.042 19.5497 172.588 17.9237 169.962Z" fill="#3A140F"/>
<path d="M0.699754 158.912L0.553755 159.04C0.231725 159.32 0.0339885 159.717 0.00398772 160.142C-0.026013 160.568 0.114175 160.988 0.393754 161.31L8.54175 170.684L15.3798 178.548C15.6144 178.818 15.9462 178.983 16.3025 179.007C16.6587 179.032 17.0102 178.915 17.2798 178.68C17.3978 178.578 17.5078 178.48 17.6118 178.366L0.699754 158.912Z" fill="#FFAABE"/>
<path d="M75.9217 166.216C75.7893 166.216 75.6611 166.17 75.558 166.087C75.455 166.004 75.3831 165.888 75.3541 165.759C75.3251 165.63 75.3407 165.494 75.3984 165.375C75.456 165.256 75.5524 165.16 75.6717 165.102L79.3337 163.374C79.4724 163.318 79.6275 163.317 79.7671 163.371C79.9067 163.426 80.0201 163.531 80.0841 163.667C80.1481 163.802 80.1578 163.957 80.1113 164.1C80.0647 164.242 79.9654 164.361 79.8337 164.432L76.1797 166.16C76.0991 166.199 76.0108 166.218 75.9217 166.216Z" fill="#EDEAD9"/>
<path d="M77.7538 168.202C77.6203 168.204 77.4905 168.159 77.386 168.076C77.2814 167.993 77.2084 167.877 77.1792 167.746C77.15 167.616 77.1663 167.48 77.2253 167.36C77.2844 167.24 77.3827 167.145 77.5038 167.088L81.1658 165.36C81.3061 165.294 81.4669 165.287 81.6128 165.339C81.7587 165.392 81.8778 165.5 81.9438 165.64C82.0099 165.781 82.0175 165.942 81.9649 166.087C81.9124 166.233 81.8041 166.352 81.6638 166.418L78.0018 168.146C77.9244 168.183 77.8396 168.203 77.7538 168.202Z" fill="#EDEAD9"/>
<path d="M15.8777 165.595C15.7988 165.595 15.7207 165.579 15.6481 165.548C15.5756 165.517 15.5101 165.472 15.4557 165.415L12.6557 162.495C12.5483 162.383 12.4897 162.233 12.4929 162.078C12.4961 161.922 12.5608 161.775 12.6727 161.668C12.7846 161.56 12.9346 161.502 13.0897 161.505C13.2448 161.508 13.3923 161.573 13.4997 161.685L16.2997 164.605C16.3819 164.687 16.4377 164.792 16.4601 164.906C16.4824 165.02 16.4703 165.138 16.4253 165.245C16.3802 165.353 16.3043 165.444 16.2071 165.508C16.11 165.572 15.996 165.606 15.8797 165.605L15.8777 165.595Z" fill="#EDEAD9"/>
<path d="M6.5498 147.347L21.7478 164.833L27.1678 160.121L11.7398 142.837L6.5498 147.347Z" fill="#BC4632"/>
<path d="M11.7397 142.836L27.1677 160.12L46.3257 143.472L34.5257 123.03L11.7397 142.836Z" fill="#EE9334"/>
<path d="M57.9058 163.539L61.6578 170.043L82.7798 160.533L79.3398 153.733L57.9058 163.539Z" fill="#BC4632"/>
<path d="M49.6178 95.0565H23.0498C22.4718 99.5605 23.1698 102.885 24.0138 105.197C25.8138 110.149 30.0678 115.303 30.0678 115.303L34.5278 123.035L40.0598 118.235L55.2598 135.721L46.3278 143.485C50.6698 151.003 54.9798 158.457 57.9058 163.539L79.3378 153.739L49.6178 95.0565Z" fill="#EE9334"/>
<path d="M40.0598 118.223L34.5278 123.023L46.3278 143.465L55.2598 135.701L40.0598 118.223Z" fill="#EE9334"/>
<path d="M49.6177 95.0565H23.0497L21.3017 86.6345L18.1797 71.5265C17.5357 68.4165 16.4197 65.1705 16.7797 61.9265C17.1797 58.2825 19.8537 55.5985 23.4797 55.0725C25.5077 54.7785 27.6037 55.0205 29.6437 55.0205H37.1517C44.0417 55.0205 49.6257 61.2205 49.6257 68.8725L49.6177 95.0565Z" fill="#EDEAD9"/>
<path d="M30.4377 50.7966H29.3097C28.9095 50.7966 28.5132 50.7178 28.1436 50.5646C27.7739 50.4114 27.438 50.1868 27.1551 49.9037C26.8722 49.6207 26.6479 49.2847 26.495 48.9149C26.342 48.5451 26.2634 48.1488 26.2637 47.7486V37.5946H30.4377V50.7966Z" fill="#BC4632"/>
<path d="M68.1997 35.2985C68.1728 35.2812 68.1448 35.2659 68.1157 35.2525C68.0157 35.2145 68.3737 35.4705 68.2737 35.3705C68.1737 35.2705 68.4737 35.6345 68.3917 35.5265C68.2837 35.3665 68.4477 35.6645 68.4457 35.6705C68.4339 35.5814 68.411 35.4941 68.3777 35.4105C68.3657 35.3505 68.3557 35.2885 68.3457 35.2265L68.3337 35.1485C68.3037 34.9485 68.3337 35.1985 68.3477 35.2545C68.2657 34.5345 68.1737 33.8145 68.0657 33.0985C67.9244 32.1652 67.7431 31.2385 67.5217 30.3185C67.2555 29.1711 66.9154 28.0421 66.5037 26.9385C66.0968 25.7818 65.548 24.68 64.8697 23.6585C63.3297 21.4585 60.5637 20.1925 58.0477 21.7125C54.3617 23.9405 55.9117 28.5885 58.0797 31.2685C59.1957 32.6485 60.5617 33.7985 61.8957 34.9605C62.9697 35.8965 64.1157 36.7605 65.4457 37.2945C66.1377 37.5725 66.9457 37.7185 67.6777 37.5065C68.6477 37.2225 69.2917 36.3765 69.5117 35.4125C69.6107 34.8682 69.6709 34.3174 69.6917 33.7645C69.7017 33.6205 69.7177 33.4765 69.7337 33.3345C69.7337 33.2825 69.7737 33.0245 69.7337 33.2525C69.6937 33.4805 69.7477 33.1665 69.7577 33.1085C69.8618 32.4459 70.0054 31.79 70.1877 31.1445C70.7877 29.0025 71.8017 26.7965 73.3517 25.1725C74.4977 23.9725 77.5837 22.1385 79.0617 23.8705C79.4137 24.2825 79.4617 24.8885 79.3297 25.4145C78.9837 26.7485 77.9297 28.1025 77.0917 29.1645C76.8797 29.4365 76.6617 29.7025 76.4397 29.9645C75.9717 30.5165 75.4857 31.0545 74.9817 31.5645C74.4777 32.0745 73.9377 32.5965 73.3817 33.0765C73.2497 33.1905 73.1157 33.3025 72.9817 33.4125L72.7937 33.5645L72.6857 33.6505C72.5237 33.7785 72.8477 33.5285 72.7317 33.6145C72.4537 33.8145 72.1797 34.0145 71.8917 34.2145C71.6037 34.4145 71.3377 34.5665 71.0497 34.7245C70.9157 34.7965 70.7797 34.8665 70.6497 34.9245C70.5877 34.9565 70.5257 34.9845 70.4617 35.0145C70.3977 35.0445 70.3897 35.0445 70.3557 35.0625C70.2377 35.1185 70.6497 34.9445 70.4477 35.0225C70.1823 35.1299 69.9104 35.2207 69.6337 35.2945C69.5057 35.3265 69.3777 35.3505 69.2477 35.3765C69.0097 35.4225 69.3977 35.3625 69.3317 35.3665C69.2657 35.3705 69.1817 35.3825 69.1077 35.3865C68.9931 35.3925 68.8783 35.3925 68.7637 35.3865C68.6997 35.3865 68.6357 35.3865 68.5637 35.3745C68.3297 35.3565 68.6997 35.3985 68.6617 35.3885C68.5477 35.3565 68.4277 35.3425 68.3137 35.3105L68.1337 35.2505C67.8917 35.1665 68.3557 35.3505 68.1917 35.2765C67.6377 35.0225 66.9077 35.0985 66.5917 35.6965C66.3197 36.2085 66.4157 37.0245 67.0097 37.2965C69.7017 38.5225 72.4897 36.7865 74.5497 35.1205C76.7386 33.3298 78.6435 31.2179 80.1997 28.8565C81.0417 27.5785 81.8717 26.0565 81.7237 24.4705C81.6747 23.8762 81.4839 23.3023 81.1672 22.797C80.8505 22.2917 80.4172 21.8697 79.9037 21.5665C79.0614 21.0911 78.099 20.8708 77.1337 20.9325C73.9457 21.0545 71.4817 23.3185 69.9077 25.9225C69.1189 27.2461 68.4969 28.6622 68.0557 30.1385C67.6506 31.5232 67.4011 32.9486 67.3117 34.3885L67.2937 34.5885C67.2937 34.6085 67.2677 34.7785 67.2937 34.6405C67.3197 34.5025 67.2777 34.7085 67.2717 34.7425C67.2577 34.8105 67.2417 34.8765 67.2217 34.9425C67.2017 35.0085 67.1857 35.0425 67.1757 35.0905C67.2017 34.9485 67.2237 34.9985 67.1877 35.0625C67.1517 35.1265 66.9877 35.3665 67.1197 35.2005C67.2517 35.0345 67.1017 35.2005 67.0657 35.2505C67.0297 35.3005 67.0017 35.2965 66.9877 35.3205C66.9997 35.3005 67.2397 35.1645 67.0997 35.2285C67.0477 35.2505 66.8557 35.3485 67.0597 35.2605C67.2637 35.1725 67.0157 35.2605 66.9617 35.2785C66.7857 35.3325 67.2737 35.2645 67.0417 35.2665C66.9697 35.2665 66.8997 35.2665 66.8277 35.2665H66.7457C66.5717 35.2665 66.8777 35.2805 66.8897 35.2865C66.8051 35.2624 66.7189 35.2444 66.6317 35.2325C66.4821 35.1959 66.335 35.1491 66.1917 35.0925L66.1017 35.0585C65.9637 35.0125 66.3357 35.1645 66.2017 35.1005C66.1137 35.0565 66.0217 35.0185 65.9337 34.9745C65.3352 34.6502 64.7617 34.2818 64.2177 33.8725C64.3437 33.9605 64.3997 34.0145 64.2477 33.8945C64.1977 33.8545 64.1477 33.8165 64.0977 33.7745C63.9977 33.6945 63.8977 33.6105 63.7977 33.5265C63.5077 33.2785 63.2217 33.0265 62.9337 32.7745C61.4757 31.5065 59.8017 30.1745 58.8397 28.4665C58.1317 27.2085 57.6877 25.1065 58.8897 23.9925C59.1523 23.7522 59.4646 23.5726 59.8043 23.4665C60.1441 23.3604 60.503 23.3304 60.8557 23.3785C61.6557 23.4865 62.3157 24.0805 62.7677 24.7185C62.7417 24.6825 62.6997 24.6265 62.6717 24.5925C63.2352 25.3501 63.6965 26.1786 64.0437 27.0565C64.0179 27.0204 63.9938 26.983 63.9717 26.9445C64.9477 28.6165 65.3097 30.8965 65.6517 32.7765C65.7237 33.1765 65.7897 33.5645 65.8517 33.9605C65.8517 33.9965 65.8617 34.0325 65.8657 34.0705C65.8457 33.9325 65.8197 33.7145 65.8537 33.9765C65.8877 34.2385 65.9217 34.5185 65.9557 34.7885C66.0057 35.1885 66.0457 35.5885 66.1217 35.9885C66.1593 36.2648 66.2605 36.5285 66.4174 36.759C66.5742 36.9894 66.7825 37.1803 67.0257 37.3165C67.5757 37.5825 68.3157 37.4845 68.6257 36.8965C68.8977 36.3745 68.7797 35.5825 68.1997 35.2985Z" fill="#FFAABE"/>
<path d="M59.7258 39.3805H52.3798C52.5451 39.8249 52.6004 40.3027 52.5409 40.7731C52.4814 41.2435 52.3088 41.6925 52.038 42.0816C51.7671 42.4708 51.406 42.7886 50.9856 43.0078C50.5652 43.2271 50.0979 43.3412 49.6238 43.3405C49.467 43.3394 49.3105 43.326 49.1558 43.3005V49.5845C49.5484 49.5743 49.9392 49.6428 50.305 49.786C50.6707 49.9291 51.0041 50.1441 51.2855 50.4183C51.5668 50.6924 51.7904 51.02 51.9431 51.382C52.0958 51.7439 52.1745 52.1327 52.1745 52.5255C52.1745 52.9183 52.0958 53.3071 51.9431 53.6691C51.7904 54.031 51.5668 54.3586 51.2855 54.6328C51.0041 54.9069 50.6707 55.1219 50.305 55.2651C49.9392 55.4083 49.5484 55.4767 49.1558 55.4665V56.7505C49.1555 56.9114 49.187 57.0708 49.2484 57.2195C49.3098 57.3683 49.3999 57.5034 49.5136 57.6173C49.6272 57.7312 49.7623 57.8215 49.9109 57.8831C50.0595 57.9448 50.2189 57.9765 50.3798 57.9765H59.7298C59.8908 57.9768 60.0504 57.9452 60.1993 57.8837C60.3481 57.8222 60.4834 57.7319 60.5973 57.618C60.7112 57.5041 60.8015 57.3689 60.863 57.22C60.9245 57.0711 60.956 56.9116 60.9558 56.7505V40.6065C60.9558 40.4452 60.9239 40.2854 60.8621 40.1364C60.8002 39.9874 60.7095 39.8521 60.5953 39.7382C60.481 39.6243 60.3454 39.5341 60.1962 39.4727C60.047 39.4113 59.8871 39.38 59.7258 39.3805Z" fill="#EDEAD9"/>
<path d="M52.5577 40.4005C52.5577 40.0522 52.4954 39.7068 52.3737 39.3805H50.3797C50.0545 39.3805 49.7427 39.5097 49.5128 39.7396C49.2829 39.9695 49.1537 40.2813 49.1537 40.6065V43.3005C49.3084 43.326 49.4649 43.3394 49.6217 43.3405C50.4007 43.3394 51.1475 43.0292 51.698 42.478C52.2485 41.9267 52.5577 41.1795 52.5577 40.4005Z" fill="#EE9334"/>
<path d="M56.6337 51.5226C58.2585 51.5226 59.5757 50.2054 59.5757 48.5806C59.5757 46.9557 58.2585 45.6385 56.6337 45.6385C55.0088 45.6385 53.6917 46.9557 53.6917 48.5806C53.6917 50.2054 55.0088 51.5226 56.6337 51.5226Z" fill="#EE9334"/>
<path d="M61.0458 57.1045C60.9677 56.7844 60.8028 56.4922 60.5691 56.26C60.3355 56.0277 60.0423 55.8646 59.7218 55.7885C59.7962 55.4914 59.7919 55.1801 59.7093 54.8853C59.6267 54.5904 59.4687 54.3221 59.2509 54.1069C59.0331 53.8917 58.7629 53.737 58.4671 53.658C58.1712 53.579 57.8599 53.5785 57.5638 53.6565C57.4486 53.2766 57.2089 52.9465 56.8833 52.7194C56.5578 52.4923 56.1652 52.3814 55.769 52.4045C55.3727 52.4276 54.9957 52.5834 54.6987 52.8467C54.4017 53.1101 54.202 53.4658 54.1318 53.8565C54.0654 53.8482 53.9986 53.8442 53.9318 53.8445C53.4623 53.8445 53.0121 54.0309 52.6802 54.3629C52.3482 54.6948 52.1618 55.145 52.1618 55.6145C52.1618 55.6365 52.1618 55.6585 52.1618 55.6805C52.1618 55.7025 51.8358 55.8285 51.8118 55.8405C51.5136 55.9849 51.2651 56.2146 51.0978 56.5005C50.9171 56.8197 50.8393 57.187 50.8751 57.5521C50.9109 57.9172 51.0585 58.2624 51.2978 58.5405C51.5138 58.8488 51.8008 59.1006 52.1346 59.2747C52.4685 59.4488 52.8393 59.5399 53.2158 59.5405H58.7498C59.248 59.5408 59.7332 59.3809 60.1338 59.0845C60.2946 58.9874 60.4465 58.8763 60.5878 58.7525C60.7242 58.6145 60.837 58.455 60.9218 58.2805C61.0994 57.9151 61.1433 57.4989 61.0458 57.1045Z" fill="#FFAABE"/>
<path d="M52.0917 52.5245C52.0911 51.7445 51.7809 50.9968 51.2293 50.4455C50.6776 49.8942 49.9296 49.5845 49.1497 49.5845V55.4665C49.9299 55.4665 50.6782 55.1565 51.23 54.6048C51.7817 54.053 52.0917 53.3047 52.0917 52.5245Z" fill="#EE9334"/>
<path d="M61.4198 61.4785H46.5278V64.8125H61.4198V61.4785Z" fill="#FFAABE"/>
<path d="M48.4198 68.5485H61.4198V64.8125H46.5278V66.6565C46.5278 67.1583 46.7272 67.6395 47.082 67.9943C47.4368 68.3492 47.918 68.5485 48.4198 68.5485Z" fill="#129277"/>
<path d="M61.4197 59.2006C61.4197 58.8139 61.2661 58.443 60.9927 58.1696C60.7193 57.8962 60.3484 57.7426 59.9617 57.7426H47.9797C47.5932 57.7431 47.2227 57.8969 46.9494 58.1702C46.676 58.4435 46.5223 58.814 46.5217 59.2006V61.4786H61.4197V59.2006Z" fill="#129277"/>
<path d="M82.7777 35.3325H55.3997V68.6425H82.7777V35.3325Z" fill="#FD510C"/>
<path d="M81.3598 57.5425C76.0998 57.5425 72.1298 55.9425 69.5598 52.8025C67.3638 50.1325 66.1978 46.2825 66.1798 41.6565C66.1661 39.5732 66.3773 37.4945 66.8098 35.4565C66.8276 35.3818 66.8598 35.3113 66.9048 35.249C66.9498 35.1868 67.0066 35.134 67.0719 35.0937C67.1373 35.0534 67.21 35.0264 67.2858 35.0142C67.3616 35.0019 67.4391 35.0048 67.5138 35.0225C67.5886 35.0402 67.6591 35.0725 67.7213 35.1175C67.7836 35.1625 67.8363 35.2193 67.8766 35.2846C67.9169 35.35 67.944 35.4227 67.9562 35.4985C67.9684 35.5743 67.9656 35.6518 67.9478 35.7265C67.9238 35.8305 65.5638 46.0925 70.4598 52.0625C72.9518 55.1025 76.9338 56.5465 82.2898 56.3545C82.3688 56.348 82.4483 56.3576 82.5234 56.3827C82.5986 56.4078 82.6678 56.4478 82.7271 56.5005C82.7863 56.5531 82.8342 56.6172 82.868 56.6889C82.9018 56.7606 82.9206 56.8383 82.9235 56.9175C82.9263 56.9967 82.9131 57.0756 82.8845 57.1495C82.856 57.2234 82.8128 57.2908 82.7575 57.3475C82.7022 57.4043 82.6359 57.4492 82.5628 57.4796C82.4896 57.51 82.4111 57.5253 82.3318 57.5245C82.0018 57.5385 81.6778 57.5425 81.3598 57.5425Z" fill="#FFAABE"/>
<path d="M65.8657 68.7585C65.8281 68.7591 65.7906 68.7557 65.7537 68.7485C65.6783 68.7339 65.6065 68.7046 65.5424 68.6622C65.4783 68.6198 65.4233 68.5651 65.3803 68.5014C65.3374 68.4377 65.3075 68.3661 65.2923 68.2908C65.2771 68.2155 65.2769 68.1379 65.2917 68.0625C66.9897 59.3165 64.1897 52.5425 61.5437 48.4005C58.6597 43.8885 55.3217 41.4225 55.2897 41.4005C55.1645 41.309 55.0808 41.1715 55.057 41.0183C55.0332 40.8651 55.0712 40.7087 55.1627 40.5835C55.2542 40.4583 55.3917 40.3746 55.5449 40.3508C55.6981 40.327 55.8545 40.365 55.9797 40.4565C56.1217 40.5605 59.5017 43.0565 62.5057 47.7365C65.2797 52.0645 68.2157 59.1365 66.4417 68.2905C66.4145 68.423 66.3422 68.542 66.2372 68.6273C66.1322 68.7126 66.001 68.759 65.8657 68.7585Z" fill="#FFAABE"/>
<path d="M60.1639 68.7606C60.1013 68.7602 60.0393 68.7501 59.9799 68.7306C59.907 68.7066 59.8395 68.6685 59.7813 68.6184C59.7231 68.5683 59.6754 68.5072 59.6409 68.4387C59.6063 68.3701 59.5856 68.2955 59.58 68.2189C59.5743 68.1424 59.5838 68.0654 59.6079 67.9926C59.7519 67.5546 63.1939 57.2086 68.8619 52.6566C69.8932 51.8361 71.1508 51.3505 72.4659 51.2651C73.781 51.1796 75.0908 51.4983 76.2197 52.1784C77.3485 52.8585 78.2425 53.8675 78.7816 55.0701C79.3207 56.2727 79.4792 57.6113 79.2359 58.9066C78.6739 61.7986 76.9379 65.0426 74.0759 68.5446C73.9777 68.6644 73.836 68.7404 73.6819 68.7558C73.5277 68.7712 73.3737 68.7247 73.2539 68.6266C73.134 68.5284 73.058 68.3867 73.0426 68.2325C73.0272 68.0784 73.0737 67.9244 73.1719 67.8046C75.9099 64.4526 77.5719 61.3846 78.0879 58.6846C78.6019 56.0386 77.1519 54.1086 75.6219 53.1866C74.0919 52.2646 71.6999 51.8766 69.5939 53.5686C64.1939 57.9046 60.7519 68.2526 60.7179 68.3566C60.6796 68.4736 60.6056 68.5755 60.5061 68.6481C60.4067 68.7206 60.2869 68.7599 60.1639 68.7606Z" fill="#FFAABE"/>
<path d="M130.315 145.798L116.235 150.71L117.701 154.911L131.781 150L130.315 145.798Z" fill="#BC4632"/>
<path d="M117.694 154.925L118.564 157.423C119.802 160.891 119.762 164.687 118.452 168.129C118.091 169.058 117.634 169.946 117.086 170.779C116.01 172.403 111.662 172.963 112.362 175.481C112.429 175.725 112.547 175.954 112.706 176.151C112.866 176.349 113.064 176.512 113.289 176.63C113.514 176.748 113.761 176.818 114.014 176.837C114.267 176.856 114.522 176.822 114.762 176.739L125.38 173.037C126.634 172.599 127.777 171.892 128.729 170.966C129.682 170.04 130.42 168.918 130.894 167.677L131.348 166.477L132.226 168.991C132.293 169.184 132.398 169.363 132.534 169.516C132.67 169.669 132.835 169.793 133.02 169.883C133.204 169.972 133.404 170.024 133.609 170.035C133.813 170.047 134.018 170.018 134.212 169.951L136.766 169.061C137.157 168.924 137.477 168.638 137.657 168.265C137.837 167.892 137.862 167.463 137.726 167.073L136.85 164.559L135.758 161.429L135.18 159.753L133.58 155.201L131.78 150.015L117.694 154.925Z" fill="#3A140F"/>
<path d="M168.276 143.69L155.362 151.146L157.587 155L170.501 147.544L168.276 143.69Z" fill="#BC4632"/>
<path d="M157.58 155.001L158.902 157.291C160.766 160.466 161.437 164.203 160.794 167.829C160.625 168.743 160.366 169.639 160.022 170.503C159.37 172.131 157.464 172.779 156.524 174.183C155.466 175.763 156.812 178.113 158.778 176.983L168.514 171.361C169.667 170.697 170.66 169.788 171.425 168.699C172.189 167.61 172.706 166.367 172.938 165.057L173.16 163.799L174.492 166.105C174.594 166.282 174.731 166.438 174.893 166.562C175.056 166.687 175.242 166.778 175.44 166.831C175.638 166.884 175.844 166.898 176.047 166.871C176.251 166.844 176.446 166.777 176.624 166.675L178.966 165.323C179.324 165.115 179.586 164.775 179.693 164.375C179.8 163.975 179.744 163.549 179.538 163.191L178.206 160.885L176.55 158.017L175.658 156.473L173.258 152.299L170.512 147.541L157.58 155.001Z" fill="#3A140F"/>
<path d="M141.086 88.2931L120.26 100.317L149.133 150.327L169.959 138.303L141.086 88.2931Z" fill="#129277"/>
<path d="M149.132 150.326C149.368 150.714 150.514 152.514 152.77 153.038C154.936 153.54 157.272 152.666 158.77 150.81C160.244 151.05 161.757 150.795 163.072 150.086C164.617 149.208 165.763 147.768 166.272 146.064C167.187 146.102 168.093 145.869 168.876 145.395C169.66 144.921 170.287 144.227 170.678 143.399C171.069 142.571 171.208 141.646 171.077 140.74C170.947 139.834 170.552 138.986 169.942 138.302L149.132 150.326Z" fill="#129277"/>
<path d="M101.344 122.905L99.6998 119.281C95.5918 110.239 99.8338 99.6806 109.174 95.7126L140.11 82.5426L143.71 90.4726C146.738 97.1346 143.61 104.913 136.728 107.843L101.344 122.905Z" fill="#129277"/>
<path d="M120.239 107.609L98.311 115.307L109.79 148.004L131.718 140.306L120.239 107.609Z" fill="#129277"/>
<path d="M110.146 148.73C110.546 151.086 112.45 152.862 114.708 153.05C115.695 153.119 116.681 152.899 117.546 152.418C118.411 151.937 119.117 151.215 119.58 150.34C120.602 150.923 121.794 151.135 122.954 150.94C125.382 150.502 126.486 148.376 126.61 148.124C126.81 148.198 129.236 149.074 131.136 147.678C132.954 146.344 133.536 143.478 132.174 141.052L110.146 148.73Z" fill="#129277"/>
<path d="M126.18 94.5105C126.025 94.5105 125.876 94.449 125.767 94.3395C125.657 94.23 125.596 94.0814 125.596 93.9265V88.2085C125.596 88.0536 125.657 87.9051 125.767 87.7956C125.876 87.686 126.025 87.6245 126.18 87.6245C126.335 87.6245 126.483 87.686 126.593 87.7956C126.702 87.9051 126.764 88.0536 126.764 88.2085V93.9265C126.764 94.0814 126.702 94.23 126.593 94.3395C126.483 94.449 126.335 94.5105 126.18 94.5105Z" fill="#3A140F"/>
<path d="M127.754 112.257C127.619 112.257 127.489 112.211 127.384 112.126C127.28 112.042 127.208 111.924 127.18 111.792C127.153 111.66 127.171 111.523 127.233 111.404C127.295 111.284 127.396 111.19 127.52 111.137L138.062 106.537C138.096 106.525 141.71 105.337 143.504 101.707C144.904 98.9066 144.866 95.3886 143.412 91.2666C143.36 91.1204 143.369 90.9598 143.436 90.8201C143.503 90.6804 143.623 90.573 143.769 90.5216C143.915 90.4701 144.076 90.4788 144.215 90.5458C144.355 90.6127 144.462 90.7324 144.514 90.8786C146.08 95.3166 146.09 99.1406 144.544 102.245C142.59 106.165 138.856 107.505 138.446 107.645L127.98 112.199C127.909 112.233 127.832 112.252 127.754 112.257Z" fill="#3A140F"/>
<path d="M139.45 55.4345H131.25C130.575 55.4345 129.907 55.3016 129.284 55.0434C128.66 54.7852 128.094 54.4068 127.617 53.9297C127.14 53.4525 126.761 52.8861 126.503 52.2628C126.245 51.6394 126.112 50.9713 126.112 50.2965V42.5905C126.112 41.3645 126.599 40.1887 127.465 39.3216C128.332 38.4545 129.508 37.9671 130.734 37.9666H139.196C140.508 37.9671 141.767 38.4888 142.695 39.4171C143.623 40.3453 144.144 41.6041 144.144 42.9165V50.7385C144.144 51.9837 143.649 53.1778 142.769 54.0584C141.889 54.939 140.695 55.434 139.45 55.4345Z" fill="#3A140F"/>
<path d="M139.796 46.6185V40.4365H131.236C130.563 40.4365 129.897 40.5691 129.275 40.8266C128.654 41.0841 128.089 41.4616 127.613 41.9374C127.138 42.4133 126.76 42.9781 126.503 43.5998C126.246 44.2215 126.114 44.8877 126.114 45.5605V52.8385C126.114 53.4065 126.225 53.969 126.442 54.4939C126.66 55.0187 126.978 55.4956 127.38 55.8973C127.781 56.2991 128.258 56.6178 128.783 56.8352C129.307 57.0526 129.87 57.1645 130.438 57.1645H139.796V52.0785C140.52 52.0785 141.214 51.7909 141.726 51.2789C142.238 50.7669 142.526 50.0726 142.526 49.3485C142.526 48.6245 142.238 47.9301 141.726 47.4181C141.214 46.9061 140.52 46.6185 139.796 46.6185Z" fill="#BC4632"/>
<path d="M112.948 59.7086L113.996 38.6786C114.023 38.1338 113.833 37.6005 113.468 37.1953C113.103 36.7901 112.592 36.546 112.048 36.5166L102.812 36.0246C102.297 35.997 101.791 36.1632 101.393 36.4905C100.995 36.8178 100.734 37.2824 100.662 37.7926L97.2858 61.5786C97.9418 65.4726 100.798 68.4046 103.98 68.8066C108.204 69.3366 112.926 65.3926 112.948 59.7086Z" fill="#FFAABE"/>
<path d="M114.268 59.5866L97.2858 61.5866L97.0678 63.1306C96.8175 64.8017 96.9307 66.5072 97.3998 68.1306C98.3358 71.2786 100.954 75.1706 108.216 74.7466L126.63 73.2466L128.59 58.2726L114.268 59.5866Z" fill="#FFAABE"/>
<path d="M181.042 46.2565C180.949 45.8681 180.75 45.5129 180.468 45.2305C180.185 44.9481 179.83 44.7494 179.442 44.6565C179.483 44.4924 179.504 44.3238 179.504 44.1545C179.504 43.5859 179.278 43.0406 178.876 42.6385C178.474 42.2364 177.928 42.0105 177.36 42.0105C177.18 42.0116 177.002 42.0344 176.828 42.0785C176.686 41.6198 176.395 41.2217 176.001 40.9482C175.606 40.6746 175.131 40.5413 174.652 40.5697C174.173 40.598 173.717 40.7864 173.358 41.1045C172.998 41.4227 172.756 41.8523 172.67 42.3245C172.592 42.3165 172.514 42.3125 172.436 42.3125C171.867 42.3125 171.322 42.5384 170.92 42.9405C170.518 43.3426 170.292 43.8879 170.292 44.4565C170.292 44.4825 170.292 44.5085 170.292 44.5345C170.292 44.5605 169.892 44.7145 169.868 44.7345C169.507 44.9096 169.206 45.1881 169.004 45.5345C168.784 45.9208 168.689 46.3652 168.731 46.8074C168.773 47.2497 168.95 47.6683 169.238 48.0065C169.501 48.3778 169.849 48.6805 170.254 48.8893C170.658 49.0981 171.107 49.2069 171.562 49.2065H178.264C178.868 49.2068 179.456 49.0134 179.942 48.6545C180.135 48.5359 180.319 48.4022 180.492 48.2545C180.655 48.0868 180.79 47.8936 180.892 47.6825C181.108 47.2396 181.161 46.7347 181.042 46.2565Z" fill="#EE9334"/>
<path d="M139.796 46.6085H136.884C135.358 46.6085 133.895 46.0025 132.817 44.9238C131.738 43.8451 131.132 42.382 131.132 40.8565V39.4325H139.796V46.6085Z" fill="#3A140F"/>
<path d="M146.79 43.1065C149.902 43.1065 152.426 40.5304 152.426 37.3525C152.426 34.1747 149.902 31.5985 146.79 31.5985C143.677 31.5985 141.154 34.1747 141.154 37.3525C141.154 40.5304 143.677 43.1065 146.79 43.1065Z" fill="#3A140F"/>
<path d="M158.916 39.7725C163.839 39.7725 167.83 35.6983 167.83 30.6725C167.83 25.6467 163.839 21.5725 158.916 21.5725C153.993 21.5725 150.002 25.6467 150.002 30.6725C150.002 35.6983 153.993 39.7725 158.916 39.7725Z" fill="#3A140F"/>
<path d="M129.526 54.0345C128.831 54.0309 128.163 53.7644 127.656 53.2885C127.545 53.18 127.482 53.0319 127.48 52.8768C127.478 52.7217 127.538 52.5723 127.647 52.4615C127.755 52.3506 127.903 52.2874 128.058 52.2857C128.214 52.284 128.363 52.344 128.474 52.4525C128.576 52.5505 129.486 53.3485 130.664 52.4145C130.724 52.3668 130.793 52.3314 130.867 52.3104C130.94 52.2894 131.018 52.2831 131.094 52.2919C131.17 52.3007 131.244 52.3245 131.311 52.3618C131.378 52.3991 131.437 52.4493 131.485 52.5095C131.532 52.5696 131.568 52.6385 131.589 52.7124C131.61 52.7862 131.616 52.8634 131.607 52.9396C131.598 53.0159 131.575 53.0896 131.537 53.1567C131.5 53.2237 131.45 53.2828 131.39 53.3304C130.868 53.7729 130.21 54.0216 129.526 54.0345Z" fill="#3A140F"/>
<path d="M142.736 88.2085H124.336C120.244 84.0365 119.352 80.2405 119.106 78.3265C118.706 75.1385 119.64 72.0385 121.546 65.9665C121.936 64.7285 122.322 63.5785 122.692 62.5285C123.606 59.9285 126.194 58.2065 129.068 58.2605L142.834 58.5185C147.14 58.6005 150.21 62.5185 149.06 66.4745L142.736 88.2085Z" fill="#FFAABE"/>
<path d="M139.798 57.1646H131.52V60.4665H139.798V57.1646Z" fill="#BC4632"/>
<path d="M131.52 59.1806L137.274 57.4866C137.312 57.4759 137.345 57.4516 137.367 57.4183C137.389 57.3849 137.398 57.3448 137.392 57.3054C137.387 57.2659 137.367 57.2299 137.337 57.204C137.306 57.1781 137.268 57.1641 137.228 57.1646H131.52V59.1806Z" fill="#3A140F"/>
<path d="M146.102 59.4106C148.204 60.6766 149.272 60.9566 152.456 61.8386C161.64 64.3786 168.37 61.0906 172.298 59.2606C172.657 59.0941 173.06 59.0487 173.447 59.1313C173.834 59.2139 174.184 59.42 174.444 59.7186L181.34 67.6566C181.497 67.838 181.617 68.0486 181.693 68.2764C181.769 68.5042 181.799 68.7447 181.782 68.9842C181.764 69.2236 181.7 69.4573 181.592 69.6719C181.485 69.8864 181.336 70.0777 181.154 70.2346C176.676 74.1166 161.57 85.2826 144.154 76.8166C144.01 70.7366 146.238 65.4886 146.102 59.4106Z" fill="#FFAABE"/>
<path d="M169.448 53.1025C169.806 53.1365 170.838 53.1665 172.098 52.2205C172.098 52.2205 175.098 55.9005 178.156 52.2205C178.602 52.5885 179.842 53.5025 181.194 53.2465C182.174 53.0605 183.082 52.2865 183.68 51.1245V49.1625C183.68 48.9976 183.614 48.8394 183.498 48.7227C183.381 48.6061 183.223 48.5405 183.058 48.5405H166.78C166.615 48.5405 166.457 48.6061 166.34 48.7227C166.223 48.8394 166.158 48.9976 166.158 49.1625V50.5385C166.95 52.0345 168.18 52.9845 169.448 53.1025Z" fill="#FFAABE"/>
<path d="M181.194 52.3105C179.842 52.5685 178.594 51.6525 178.156 51.2845C175.104 54.9645 172.098 51.2845 172.098 51.2845C170.838 52.2305 169.806 52.2005 169.448 52.1685C168.174 52.0505 166.95 51.0985 166.15 49.6045V59.9645C166.15 60.0462 166.166 60.1271 166.197 60.2025C166.228 60.278 166.274 60.3466 166.332 60.4043C166.39 60.4621 166.458 60.5079 166.534 60.5391C166.609 60.5704 166.69 60.5865 166.772 60.5865H183.058C183.223 60.5865 183.381 60.521 183.497 60.4043C183.614 60.2877 183.68 60.1295 183.68 59.9645V50.1905C183.082 51.3525 182.18 52.1265 181.194 52.3105Z" fill="#EDEAD9"/>
<path d="M175.898 47.5845H173.454V60.5865H175.898V47.5845Z" fill="#129277"/>
<path d="M109.298 60.8006C109.151 60.7997 109.009 60.7432 108.902 60.6423C108.794 60.5414 108.729 60.4037 108.719 60.2567C108.709 60.1097 108.754 59.9643 108.847 59.8497C108.94 59.735 109.072 59.6596 109.218 59.6386L112.866 59.1286C113.019 59.1071 113.175 59.1475 113.299 59.2409C113.423 59.3343 113.504 59.473 113.526 59.6266C113.547 59.7801 113.507 59.9359 113.414 60.0597C113.32 60.1835 113.181 60.2651 113.028 60.2866L109.38 60.7966C109.353 60.7999 109.325 60.8012 109.298 60.8006Z" fill="#FD510C"/>
<path d="M119.318 74.4146C119.241 74.4147 119.166 74.3997 119.096 74.3706C119.025 74.3414 118.96 74.2985 118.905 74.2443C118.851 74.1901 118.808 74.1256 118.778 74.0546C118.748 73.9837 118.733 73.9075 118.733 73.8306C118.733 73.7538 118.748 73.6776 118.778 73.6066C119.294 72.3586 119.864 71.1186 120.474 69.9206C121.271 68.3551 122.149 66.8317 123.104 65.3566C123.188 65.2264 123.321 65.135 123.472 65.1025C123.624 65.0701 123.782 65.0992 123.913 65.1836C124.043 65.2679 124.134 65.4005 124.167 65.5523C124.199 65.704 124.17 65.8624 124.086 65.9926C123.152 67.435 122.294 68.925 121.516 70.4566C120.916 71.6266 120.362 72.8386 119.858 74.0566C119.813 74.1631 119.738 74.2539 119.642 74.3177C119.546 74.3814 119.433 74.4152 119.318 74.4146Z" fill="#FD510C"/>
<path d="M175.2 60.5885C176.044 59.7011 176.796 58.7309 177.446 57.6925C177.572 57.4765 177.682 57.2525 177.788 57.0245C178.124 56.2945 179.41 53.8245 180.376 56.3105L182.46 52.3105C182.646 51.9427 182.909 51.6193 183.232 51.3625C183.972 50.7905 185.142 50.5125 185.072 54.6045C185.072 54.6045 185.406 61.4385 180.118 66.2565L175.2 60.5885Z" fill="#BC4632"/>
<path d="M139.634 50.6405C139.591 50.6435 139.548 50.6435 139.506 50.6405C139.22 50.6238 138.951 50.4963 138.757 50.2849C138.564 50.0735 138.46 49.7949 138.468 49.5083C138.477 49.2217 138.596 48.9497 138.802 48.7499C139.008 48.5501 139.283 48.4384 139.57 48.4384C139.857 48.4384 140.132 48.5501 140.338 48.7499C140.543 48.9497 140.663 49.2217 140.671 49.5083C140.68 49.7949 140.576 50.0735 140.382 50.2849C140.189 50.4963 139.92 50.6238 139.634 50.6405ZM139.634 49.0985C139.539 49.0987 139.447 49.1312 139.374 49.1905C139.329 49.2242 139.291 49.2666 139.263 49.3153C139.234 49.3639 139.216 49.4177 139.209 49.4735C139.202 49.5293 139.206 49.5859 139.221 49.6401C139.236 49.6943 139.262 49.7448 139.297 49.7888C139.332 49.8328 139.376 49.8692 139.426 49.896C139.475 49.9228 139.529 49.9394 139.585 49.9448C139.641 49.9501 139.698 49.9442 139.752 49.9273C139.805 49.9104 139.855 49.883 139.898 49.8465C139.984 49.7767 140.04 49.6755 140.052 49.5651C140.064 49.4546 140.033 49.3437 139.964 49.2565C139.894 49.1698 139.792 49.1144 139.682 49.1025L139.634 49.0985Z" fill="#3A140F"/>
<path d="M138.862 49.9806C138.773 49.9803 138.689 49.9468 138.624 49.8868C138.56 49.8267 138.52 49.7445 138.514 49.6566C138.495 49.353 138.565 49.0505 138.714 48.7856C138.864 48.5206 139.087 48.3044 139.356 48.1629C139.625 48.0214 139.929 47.9607 140.232 47.9879C140.535 48.0152 140.824 48.1293 141.064 48.3166C141.136 48.3749 141.182 48.4597 141.192 48.5521C141.202 48.6446 141.175 48.7372 141.117 48.8096C141.058 48.882 140.974 48.9283 140.881 48.9382C140.789 48.9481 140.696 48.9209 140.624 48.8626C140.491 48.7609 140.331 48.6994 140.164 48.6853C139.997 48.6712 139.83 48.7052 139.682 48.7832C139.533 48.8612 139.411 48.98 139.328 49.1256C139.245 49.2711 139.205 49.4373 139.214 49.6046C139.22 49.6974 139.19 49.789 139.129 49.8594C139.068 49.9299 138.982 49.9734 138.89 49.9806H138.862Z" fill="#3A140F"/>
<path d="M30.4378 36.5746V43.2066C30.3014 43.1851 30.1637 43.1738 30.0258 43.1726C29.2964 43.1726 28.5969 43.4623 28.0812 43.978C27.5655 44.4938 27.2758 45.1932 27.2758 45.9226C27.2758 46.6519 27.5655 47.3514 28.0812 47.8671C28.5969 48.3828 29.2964 48.6726 30.0258 48.6726C30.1637 48.6714 30.3014 48.6601 30.4378 48.6386V52.0046H41.8718C42.2817 52.0046 42.6875 51.9238 43.0662 51.7669C43.4449 51.61 43.7889 51.38 44.0786 51.09C44.3684 50.8001 44.5982 50.4559 44.7548 50.0772C44.9115 49.6984 44.992 49.2925 44.9918 48.8826V36.5746H30.4378Z" fill="#FF9191"/>
<path d="M40.1897 51.2645H30.4377V56.0105H40.1897V51.2645Z" fill="#FF9191"/>
<path d="M40.0177 48.6945H39.8677C39.192 48.6363 38.5643 48.3213 38.1137 47.8145C38.0129 47.6968 37.963 47.5438 37.975 47.3893C37.987 47.2347 38.0599 47.0913 38.1777 46.9905C38.2954 46.8897 38.4484 46.8399 38.6029 46.8519C38.7575 46.8639 38.9009 46.9368 39.0017 47.0545C39.2516 47.3208 39.5886 47.489 39.9517 47.5285C40.3357 47.5525 40.7277 47.3725 41.1317 47.0045C41.1854 46.9422 41.2516 46.8919 41.3261 46.857C41.4006 46.8221 41.4816 46.8033 41.5638 46.8018C41.6461 46.8004 41.7277 46.8164 41.8033 46.8486C41.879 46.8809 41.947 46.9288 42.0028 46.9892C42.0587 47.0496 42.1011 47.1211 42.1274 47.1991C42.1537 47.277 42.1633 47.3596 42.1554 47.4415C42.1476 47.5234 42.1225 47.6027 42.0819 47.6742C42.0413 47.7457 41.986 47.8078 41.9197 47.8565C41.3157 48.4145 40.6757 48.6945 40.0177 48.6945Z" fill="#FD510C"/>
<path d="M42.9958 30.9106C42.4459 30.9092 41.9012 31.0165 41.3929 31.2262C40.8846 31.4359 40.4227 31.7439 40.0338 32.1326C39.5688 31.325 38.8974 30.6556 38.0884 30.193C37.2794 29.7305 36.3619 29.4914 35.43 29.5004C34.4982 29.5093 33.5855 29.766 32.7855 30.244C31.9856 30.722 31.3271 31.4042 30.8778 32.2206C30.2127 31.8049 29.4441 31.5845 28.6598 31.5846C28.1125 31.5725 27.5684 31.6698 27.0593 31.8709C26.5502 32.072 26.0864 32.3727 25.6951 32.7555C25.3038 33.1382 24.9929 33.5953 24.7807 34.0998C24.5684 34.6043 24.4591 35.1462 24.4591 35.6936C24.4591 36.2409 24.5684 36.7828 24.7807 37.2873C24.9929 37.7918 25.3038 38.2489 25.6951 38.6316C26.0864 39.0144 26.5502 39.3151 27.0593 39.5162C27.5684 39.7173 28.1125 39.8146 28.6598 39.8026C29.2642 39.8037 29.8616 39.6738 30.411 39.4217C30.9603 39.1697 31.4485 38.8015 31.8418 38.3426C32.3864 38.864 33.0368 39.2622 33.7489 39.5102C34.4609 39.7583 35.218 39.8503 35.9687 39.7801C36.7195 39.7099 37.4464 39.4792 38.1001 39.1035C38.7539 38.7278 39.3192 38.2159 39.7578 37.6026C40.1508 38.0808 40.6452 38.4658 41.2052 38.7297C41.7651 38.9936 42.3767 39.1298 42.9958 39.1286C43.543 39.1406 44.0871 39.0433 44.5962 38.8422C45.1053 38.6411 45.5691 38.3404 45.9604 37.9576C46.3517 37.5749 46.6626 37.1178 46.8748 36.6133C47.0871 36.1088 47.1964 35.5669 47.1964 35.0196C47.1964 34.4722 47.0871 33.9303 46.8748 33.4258C46.6626 32.9213 46.3517 32.4642 45.9604 32.0815C45.5691 31.6987 45.1053 31.398 44.5962 31.1969C44.0871 30.9958 43.543 30.8985 42.9958 30.9106Z" fill="#BC4632"/>
<path d="M30.0237 47.0445C29.729 47.0279 29.4524 46.8969 29.2526 46.6795C29.0529 46.4621 28.9459 46.1754 28.9542 45.8803C28.9625 45.5852 29.0856 45.305 29.2973 45.0992C29.509 44.8934 29.7925 44.7783 30.0877 44.7783C30.3829 44.7783 30.6665 44.8934 30.8782 45.0992C31.0899 45.305 31.2129 45.5852 31.2213 45.8803C31.2296 46.1754 31.1225 46.4621 30.9228 46.6795C30.7231 46.8969 30.4465 47.0279 30.1517 47.0445C30.1091 47.0474 30.0664 47.0474 30.0237 47.0445ZM30.0237 45.5025H29.9757C29.8937 45.5123 29.8163 45.5461 29.7533 45.5996C29.6904 45.6531 29.6446 45.724 29.6217 45.8035C29.5989 45.8829 29.6 45.9673 29.6249 46.0461C29.6498 46.1249 29.6974 46.1946 29.7617 46.2465C29.805 46.2827 29.8551 46.3098 29.9091 46.3261C29.963 46.3425 30.0198 46.3477 30.0758 46.3415C30.1319 46.3354 30.1861 46.3179 30.2352 46.2903C30.2844 46.2626 30.3274 46.2253 30.3617 46.1805C30.3965 46.1374 30.4222 46.0877 30.4373 46.0345C30.4524 45.9812 30.4567 45.9254 30.4497 45.8705C30.4384 45.7682 30.3897 45.6736 30.3129 45.6049C30.2361 45.5363 30.1367 45.4984 30.0337 45.4985L30.0237 45.5025Z" fill="#FD510C"/>
<path d="M30.7938 46.3845H30.7678C30.675 46.3774 30.5889 46.3338 30.5282 46.2634C30.4675 46.1929 30.4371 46.1013 30.4438 46.0085C30.4507 45.8429 30.4106 45.6788 30.3281 45.535C30.2456 45.3913 30.1241 45.2738 29.9777 45.1962C29.8312 45.1186 29.6658 45.084 29.5006 45.0964C29.3353 45.1089 29.1769 45.1679 29.0438 45.2665C28.9714 45.3249 28.8787 45.3521 28.7863 45.3421C28.6938 45.3322 28.6091 45.2859 28.5508 45.2135C28.4924 45.1411 28.4652 45.0485 28.4752 44.9561C28.4851 44.8636 28.5314 44.7789 28.6038 44.7205C28.8434 44.5332 29.1321 44.4191 29.435 44.3919C29.738 44.3646 30.0423 44.4254 30.3116 44.5669C30.5809 44.7083 30.8035 44.9246 30.9529 45.1895C31.1023 45.4545 31.1721 45.7569 31.1538 46.0605C31.1466 46.1504 31.1053 46.234 31.0383 46.2943C30.9714 46.3546 30.8838 46.3869 30.7938 46.3845Z" fill="#FD510C"/>
<path d="M40.1898 52.0045H33.8018C33.762 52.0137 33.726 52.0348 33.6985 52.0651C33.6711 52.0954 33.6536 52.1333 33.6484 52.1738C33.6431 52.2143 33.6504 52.2555 33.6693 52.2917C33.6881 52.3279 33.7176 52.3575 33.7538 52.3765L40.1898 54.0405V52.0045Z" fill="#FD510C"/>
<path d="M48.2757 78.2405L44.7377 81.3305C42.4832 83.2998 39.5389 84.2929 36.5523 84.0915C33.5657 83.8901 30.7813 82.5106 28.8117 80.2565C25.4784 76.2045 22.151 72.1532 18.8297 68.1025C16.5457 65.1025 16.7257 60.9925 19.0457 58.4565C21.7077 55.5445 26.6457 55.3185 29.8177 58.3205C35.9724 64.9579 42.125 71.5979 48.2757 78.2405Z" fill="#EDEAD9"/>
<path d="M62.2777 77.2065L48.3377 85.7825C45.302 87.6509 41.6484 88.237 38.1805 87.4119C34.7127 86.5867 31.7146 84.4179 29.8457 81.3825L55.2337 65.7645L62.2777 77.2065Z" fill="#EDEAD9"/>
<path d="M56.9796 68.6085C56.8536 68.4085 59.1456 67.2185 59.4076 67.0945C60.8063 66.4637 62.2754 66.0024 63.7836 65.7205C64.8676 65.4925 66.0216 65.1205 67.1696 65.1585C67.6276 65.1725 68.4556 65.2085 68.7576 65.6065C68.8696 65.7545 69.0456 66.4205 68.7996 66.5125C69.9015 66.1078 71.0311 65.783 72.1796 65.5405C73.0076 65.3625 77.8176 64.4765 77.1076 66.5165C76.6376 67.8665 74.7636 68.4745 73.5796 68.9745C70.9136 70.0985 68.2756 71.1745 65.7056 72.5065L60.9196 74.9745H60.9076L56.9796 68.6085Z" fill="#FF9191"/>
<path d="M64.2998 69.3544C64.166 69.3552 64.0361 69.3099 63.9317 69.2263C63.8272 69.1428 63.7547 69.0259 63.7261 68.8952C63.6976 68.7645 63.7147 68.628 63.7747 68.5085C63.8347 68.3889 63.9339 68.2936 64.0558 68.2384L68.2558 66.3064C68.3966 66.2417 68.5574 66.2356 68.7027 66.2894C68.848 66.3432 68.9661 66.4526 69.0308 66.5934C69.0955 66.7343 69.1016 66.895 69.0478 67.0404C68.994 67.1857 68.8846 67.3037 68.7438 67.3684L64.5438 69.3004C64.4671 69.3354 64.384 69.3538 64.2998 69.3544Z" fill="#FD510C"/>
<path d="M24.0277 103.889C23.8728 103.893 23.7226 103.835 23.6101 103.729C23.4975 103.622 23.432 103.475 23.4277 103.321C23.4235 103.166 23.4809 103.015 23.5874 102.903C23.694 102.79 23.8408 102.725 23.9957 102.721C24.4497 102.695 26.7957 102.467 28.3837 100.439C28.8834 99.786 29.247 99.0398 29.4532 98.2442C29.6593 97.4485 29.7037 96.6197 29.5837 95.8066C29.5719 95.7307 29.5751 95.6532 29.5933 95.5785C29.6114 95.5039 29.644 95.4335 29.6894 95.3715C29.7347 95.3095 29.7918 95.257 29.8574 95.217C29.923 95.177 29.9958 95.1504 30.0717 95.1386C30.1476 95.1267 30.2251 95.13 30.2997 95.1481C30.3744 95.1662 30.4447 95.1989 30.5068 95.2442C30.5688 95.2895 30.6213 95.3466 30.6613 95.4122C30.7012 95.4778 30.7279 95.5507 30.7397 95.6266C30.883 96.5977 30.8299 97.5877 30.5835 98.5379C30.3372 99.4882 29.9027 100.379 29.3057 101.159C27.4517 103.523 24.8237 103.845 24.0637 103.889H24.0277Z" fill="#BC4632"/>
<path d="M43.3337 73.7645L37.2857 67.2365C37.1796 67.1228 37.1231 66.9715 37.1285 66.816C37.134 66.6606 37.2009 66.5136 37.3147 66.4075C37.4285 66.3015 37.5798 66.2449 37.7352 66.2504C37.8907 66.2558 38.0376 66.3228 38.1437 66.4365L43.5437 72.2625L49.0637 68.8625C49.1963 68.7814 49.3558 68.7562 49.5069 68.7926C49.6581 68.829 49.7886 68.9239 49.8697 69.0565C49.9509 69.1892 49.976 69.3486 49.9397 69.4997C49.9033 69.6509 49.8083 69.7814 49.6757 69.8625L43.3337 73.7645Z" fill="#129277"/>
<path d="M40.7077 88.2564C39.2038 88.2691 37.7126 87.9807 36.3217 87.4085C35.1577 86.9131 34.0864 86.2232 33.1537 85.3684C27.8117 80.6785 21.4537 73.4605 17.0597 68.2285C17.0104 68.1696 16.973 68.1016 16.9499 68.0284C16.9268 67.9551 16.9184 67.8781 16.9251 67.8015C16.9318 67.725 16.9534 67.6506 16.9889 67.5824C17.0244 67.5143 17.0729 67.4538 17.1317 67.4045C17.1906 67.3551 17.2585 67.3178 17.3318 67.2947C17.405 67.2716 17.4821 67.2631 17.5586 67.2698C17.6352 67.2765 17.7096 67.2982 17.7777 67.3336C17.8459 67.3691 17.9063 67.4176 17.9557 67.4765C22.3237 72.6765 28.6377 79.8485 33.9257 84.4885C34.7649 85.2614 35.7302 85.8851 36.7797 86.3325C41.1537 88.1604 46.0777 86.3325 49.4397 84.4845C49.5755 84.4097 49.7355 84.3919 49.8844 84.435C50.0333 84.4781 50.1589 84.5787 50.2337 84.7145C50.3085 84.8502 50.3263 85.0102 50.2832 85.1591C50.24 85.308 50.1395 85.4337 50.0037 85.5085C46.6837 87.3345 43.5417 88.2564 40.7077 88.2564Z" fill="#129277"/>
<path d="M46.3259 144.057C46.2233 144.057 46.1224 144.03 46.0336 143.979C45.9447 143.927 45.871 143.853 45.8199 143.765L34.0199 123.323C33.9525 123.189 33.939 123.034 33.9819 122.891C34.0249 122.747 34.1211 122.626 34.2508 122.551C34.3806 122.476 34.534 122.454 34.6796 122.489C34.8252 122.524 34.952 122.613 35.0339 122.739L46.8338 143.181C46.8728 143.247 46.8982 143.32 46.9085 143.397C46.9188 143.473 46.9139 143.551 46.894 143.625C46.8741 143.7 46.8396 143.769 46.7925 143.83C46.7455 143.891 46.6868 143.942 46.6199 143.981C46.5305 144.032 46.4289 144.058 46.3259 144.057Z" fill="#BC4632"/>
<path d="M17.1797 163.227C17.1008 163.227 17.0227 163.211 16.9502 163.18C16.8776 163.149 16.8121 163.104 16.7577 163.047L13.9577 160.127C13.9046 160.071 13.8628 160.006 13.8348 159.935C13.8068 159.863 13.7932 159.787 13.7947 159.71C13.7962 159.633 13.8127 159.558 13.8435 159.488C13.8742 159.417 13.9184 159.354 13.9737 159.301C14.029 159.247 14.0942 159.206 14.1657 159.178C14.2371 159.15 14.3133 159.136 14.39 159.137C14.4668 159.139 14.5424 159.156 14.6127 159.186C14.683 159.217 14.7465 159.261 14.7997 159.317L17.5997 162.237C17.7053 162.348 17.7625 162.497 17.7587 162.651C17.755 162.804 17.6906 162.95 17.5797 163.057C17.4738 163.163 17.3302 163.224 17.1797 163.227Z" fill="#EDEAD9"/>
<path d="M49.6178 102.483C49.4623 102.483 49.3133 102.421 49.2034 102.311C49.0935 102.201 49.0318 102.052 49.0318 101.897V95.5865C49.0271 95.5068 49.0388 95.427 49.0661 95.352C49.0934 95.277 49.1357 95.2083 49.1905 95.1502C49.2452 95.0922 49.3113 95.0459 49.3846 95.0142C49.4579 94.9826 49.5369 94.9663 49.6168 94.9663C49.6966 94.9663 49.7756 94.9826 49.8489 95.0142C49.9222 95.0459 49.9883 95.0922 50.043 95.1502C50.0978 95.2083 50.1402 95.277 50.1674 95.352C50.1947 95.427 50.2064 95.5068 50.2017 95.5865V101.897C50.2017 102.052 50.1403 102.2 50.0308 102.31C49.9214 102.42 49.7728 102.482 49.6178 102.483Z" fill="#BC4632"/>
<path d="M145.83 78.1585C145.757 78.158 145.684 78.1445 145.616 78.1185C144.832 77.8085 144.109 77.3623 143.48 76.8005C143.381 76.6915 143.328 76.5493 143.329 76.4024C143.331 76.2555 143.388 76.1147 143.489 76.0079C143.59 75.9012 143.727 75.8364 143.874 75.8265C144.021 75.8166 144.165 75.8623 144.28 75.9545C144.8 76.4113 145.394 76.7753 146.038 77.0305C146.165 77.0801 146.271 77.1727 146.337 77.2921C146.403 77.4116 146.425 77.5503 146.399 77.6844C146.373 77.8184 146.302 77.9392 146.196 78.0258C146.091 78.1124 145.958 78.1594 145.822 78.1585H145.83Z" fill="#FD510C"/>
<path d="M119.228 157.837C119.089 157.839 118.953 157.791 118.846 157.703C118.739 157.615 118.667 157.491 118.643 157.354C118.619 157.217 118.644 157.076 118.715 156.956C118.785 156.837 118.896 156.746 119.028 156.701L131.762 152.199C131.908 152.145 132.069 152.153 132.21 152.218C132.351 152.284 132.46 152.403 132.513 152.55C132.566 152.696 132.558 152.857 132.493 152.998C132.427 153.139 132.308 153.247 132.162 153.3L119.428 157.803C119.363 157.825 119.296 157.837 119.228 157.837Z" fill="#FFAABE"/>
<path d="M159.846 157.778C159.716 157.779 159.589 157.736 159.486 157.656C159.383 157.577 159.309 157.465 159.277 157.339C159.245 157.213 159.256 157.079 159.308 156.96C159.36 156.841 159.451 156.742 159.566 156.68L171.394 150.242C171.53 150.171 171.688 150.155 171.836 150.2C171.983 150.244 172.106 150.345 172.18 150.48C172.253 150.615 172.271 150.773 172.228 150.921C172.185 151.069 172.086 151.193 171.952 151.268L160.124 157.706C160.039 157.753 159.943 157.778 159.846 157.778Z" fill="#FFAABE"/>
<path d="M119.58 115.999C119.443 115.997 119.312 115.948 119.208 115.859C119.104 115.771 119.034 115.649 119.01 115.514C118.986 115.38 119.01 115.242 119.078 115.123C119.145 115.004 119.252 114.913 119.38 114.865L122.254 113.805C122.327 113.774 122.405 113.759 122.484 113.759C122.563 113.76 122.641 113.776 122.713 113.808C122.786 113.84 122.851 113.886 122.905 113.943C122.959 114.001 123.001 114.069 123.028 114.143C123.055 114.217 123.067 114.296 123.063 114.375C123.058 114.454 123.038 114.531 123.003 114.602C122.968 114.673 122.919 114.736 122.859 114.787C122.799 114.838 122.729 114.877 122.654 114.901L119.78 115.961C119.716 115.986 119.648 115.999 119.58 115.999Z" fill="#3A140F"/>
<path d="M137.706 74.3565L124.272 74.1305C124.194 74.1295 124.118 74.1131 124.047 74.0823C123.976 74.0514 123.912 74.0068 123.859 73.9509C123.806 73.8951 123.764 73.8291 123.736 73.7569C123.708 73.6848 123.695 73.6078 123.698 73.5305C123.704 73.376 123.771 73.23 123.882 73.123C123.994 73.016 124.143 72.9564 124.298 72.9565L137.73 73.1805C137.879 73.1893 138.019 73.2547 138.122 73.3635C138.224 73.4722 138.282 73.6161 138.282 73.7655C138.282 73.915 138.224 74.0589 138.122 74.1676C138.019 74.2764 137.879 74.3418 137.73 74.3505L137.706 74.3565Z" fill="#EDEAD9"/>
<path d="M130.84 83.1165C130.762 83.1152 130.686 83.0987 130.615 83.0677C130.545 83.0368 130.481 82.9921 130.427 82.9363C130.374 82.8805 130.332 82.8147 130.304 82.7426C130.277 82.6706 130.263 82.5937 130.266 82.5165L130.562 64.7705C130.564 64.6174 130.627 64.4714 130.736 64.364C130.845 64.2567 130.992 64.1965 131.146 64.1965H131.156C131.233 64.1976 131.309 64.214 131.38 64.2448C131.451 64.2756 131.516 64.3202 131.569 64.376C131.623 64.4319 131.665 64.4978 131.693 64.57C131.72 64.6422 131.734 64.7192 131.732 64.7965L131.436 82.5425C131.432 82.6976 131.368 82.8451 131.256 82.9527C131.145 83.0603 130.995 83.1192 130.84 83.1165Z" fill="#EDEAD9"/>
<path d="M126.98 77.9586C126.865 77.9567 126.753 77.9208 126.658 77.8555C126.563 77.7902 126.49 77.6984 126.447 77.5916C126.405 77.4847 126.394 77.3677 126.418 77.2551C126.441 77.1424 126.498 77.0393 126.58 76.9586L134.614 69.1866C134.725 69.0786 134.875 69.0194 135.03 69.0218C135.185 69.0242 135.333 69.0882 135.441 69.1996C135.549 69.311 135.608 69.4607 135.606 69.6158C135.603 69.7709 135.539 69.9186 135.428 70.0266L127.38 77.7946C127.273 77.8989 127.129 77.9577 126.98 77.9586Z" fill="#EDEAD9"/>
<path d="M134.872 78.3325C134.793 78.3323 134.716 78.3165 134.644 78.2859C134.572 78.2553 134.506 78.2107 134.452 78.1545L126.682 70.1205C126.628 70.0654 126.586 70.0002 126.558 69.9288C126.53 69.8574 126.516 69.7811 126.517 69.7043C126.518 69.6275 126.534 69.5517 126.565 69.4812C126.595 69.4108 126.64 69.347 126.695 69.2935C126.75 69.2401 126.815 69.198 126.886 69.1697C126.958 69.1415 127.034 69.1275 127.111 69.1287C127.188 69.1299 127.263 69.1463 127.334 69.1768C127.404 69.2073 127.468 69.2514 127.522 69.3065L135.294 77.3425C135.374 77.4251 135.427 77.5294 135.448 77.6423C135.469 77.7552 135.456 77.8718 135.411 77.9775C135.366 78.0832 135.291 78.1732 135.195 78.2364C135.099 78.2995 134.987 78.3329 134.872 78.3325Z" fill="#EDEAD9"/>
<path d="M177.78 71.7105C177.695 71.7115 177.611 71.6942 177.534 71.6596C177.456 71.6251 177.388 71.5742 177.332 71.5105L169.58 62.2785C169.53 62.2197 169.493 62.1517 169.47 62.0784C169.447 62.0052 169.438 61.9281 169.445 61.8516C169.452 61.7751 169.473 61.7006 169.509 61.6325C169.544 61.5644 169.593 61.5039 169.652 61.4545C169.711 61.4051 169.779 61.3678 169.852 61.3447C169.925 61.3216 170.002 61.3132 170.079 61.3198C170.155 61.3265 170.23 61.3482 170.298 61.3837C170.366 61.4191 170.426 61.4677 170.476 61.5265L178.23 70.7485C178.301 70.8339 178.347 70.9379 178.361 71.0483C178.376 71.1587 178.358 71.2709 178.311 71.3719C178.264 71.4728 178.19 71.5583 178.096 71.6182C178.002 71.6782 177.893 71.7102 177.782 71.7105H177.78Z" fill="#FD510C"/>
<path d="M112.476 41.6305H112.432L101.962 40.8565C101.885 40.8507 101.811 40.8299 101.742 40.7953C101.674 40.7606 101.612 40.7129 101.562 40.6546C101.512 40.5964 101.474 40.5289 101.45 40.456C101.426 40.383 101.417 40.3061 101.423 40.2295C101.429 40.1529 101.449 40.0783 101.484 40.0097C101.519 39.9412 101.566 39.8802 101.625 39.8301C101.683 39.7801 101.75 39.742 101.823 39.718C101.896 39.6941 101.973 39.6847 102.05 39.6905L112.518 40.4705C112.668 40.4828 112.807 40.5524 112.906 40.6647C113.006 40.777 113.059 40.9234 113.053 41.0736C113.048 41.2237 112.985 41.3659 112.877 41.4708C112.77 41.5756 112.626 41.635 112.476 41.6365V41.6305Z" fill="#FD510C"/>
<path d="M105.78 31.0565C105.674 31.0567 105.57 31.0282 105.479 30.974C105.388 30.9197 105.314 30.8418 105.264 30.7485L104.264 28.8885C104.227 28.8209 104.205 28.7467 104.197 28.6703C104.189 28.5939 104.196 28.5168 104.219 28.4432C104.241 28.3697 104.277 28.3012 104.326 28.2417C104.374 28.1822 104.434 28.1329 104.502 28.0965C104.569 28.0601 104.643 28.0374 104.72 28.0297C104.796 28.022 104.873 28.0294 104.947 28.0515C105.02 28.0736 105.089 28.1099 105.148 28.1585C105.208 28.2071 105.257 28.2669 105.294 28.3345L106.294 30.1965C106.331 30.2645 106.355 30.3393 106.364 30.4166C106.372 30.4938 106.365 30.572 106.343 30.6465C106.321 30.721 106.284 30.7904 106.235 30.8505C106.185 30.9106 106.124 30.9602 106.056 30.9965C105.97 31.0382 105.875 31.0587 105.78 31.0565Z" fill="#3A140F"/>
<path d="M179.63 60.1846C179.522 60.1839 179.417 60.1536 179.326 60.0971C179.234 60.0406 179.16 59.9601 179.111 59.8642C179.063 59.7684 179.041 59.6611 179.049 59.5539C179.058 59.4467 179.095 59.3439 179.158 59.2566C179.906 58.2226 179.794 56.3686 179.794 56.3506C179.783 56.1959 179.834 56.0434 179.936 55.9266C180.038 55.8098 180.182 55.7382 180.337 55.7276C180.491 55.717 180.644 55.7682 180.761 55.87C180.878 55.9719 180.949 56.1159 180.96 56.2706C180.96 56.3646 181.104 58.5626 180.104 59.9426C180.05 60.0177 179.978 60.0788 179.896 60.1209C179.814 60.163 179.722 60.1848 179.63 60.1846Z" fill="#3A140F"/>
</svg>
