<svg width="180" height="120" viewBox="0 0 180 120" fill="none" xmlns="http://www.w3.org/2000/svg">
<path d="M179.369 72.954V54.52C168.821 50.818 159.413 36.836 156.185 31.6H156.069V50.8C159.873 56.8 169.149 69.866 179.369 72.954Z" fill="#EDEAD9"/>
<path d="M179.287 54.506V31.6H156.117C159.343 36.832 168.747 50.8 179.287 54.506Z" fill="#F19400"/>
<path d="M156.069 88.2161V118.564H179.369V109.892C169.321 107.104 160.133 94.5141 156.069 88.2161Z" fill="#F19400"/>
<path d="M156.069 68.842V88.216C160.133 94.514 169.321 107.104 179.369 109.892V91.476C168.941 88.07 159.563 74.442 156.069 68.842Z" fill="#EDEAD9"/>
<path d="M179.287 91.442V72.9301C169.073 69.8441 159.803 56.78 156.001 50.8V68.82C159.487 74.416 168.867 88.036 179.287 91.442Z" fill="#F19400"/>
<path d="M167.719 35.6121C174.154 35.6121 179.369 33.7128 179.369 31.3701C179.369 29.0273 174.154 27.1281 167.719 27.1281C161.285 27.1281 156.069 29.0273 156.069 31.3701C156.069 33.7128 161.285 35.6121 167.719 35.6121Z" fill="#FD510C"/>
<path d="M176.087 27.13C175.96 26.6003 175.687 26.1164 175.301 25.732C174.915 25.3475 174.43 25.0776 173.899 24.952C173.955 24.7276 173.983 24.4973 173.983 24.266C173.984 23.8814 173.908 23.5004 173.761 23.1449C173.614 22.7895 173.399 22.4664 173.127 22.1943C172.855 21.9222 172.532 21.7064 172.176 21.5591C171.821 21.4118 171.44 21.336 171.055 21.336C170.81 21.3376 170.565 21.3691 170.327 21.43C170.135 20.8028 169.737 20.2585 169.198 19.8844C168.659 19.5103 168.01 19.3281 167.355 19.3671C166.7 19.4061 166.077 19.664 165.586 20.0993C165.095 20.5347 164.764 21.1224 164.647 21.768C164.541 21.7553 164.434 21.7487 164.327 21.748C163.55 21.748 162.805 22.0567 162.256 22.6062C161.706 23.1557 161.397 23.901 161.397 24.678C161.397 24.714 161.397 24.75 161.397 24.786C161.397 24.786 160.861 25.03 160.819 25.052C160.326 25.2897 159.915 25.6693 159.639 26.142C159.339 26.6697 159.209 27.2771 159.266 27.8816C159.323 28.486 159.565 29.0581 159.959 29.52C160.318 30.0286 160.793 30.4435 161.346 30.73C161.898 31.0164 162.511 31.166 163.133 31.166H172.289C173.114 31.1669 173.918 30.9034 174.581 30.414C174.847 30.2514 175.098 30.0674 175.333 29.864C175.558 29.6356 175.745 29.3722 175.885 29.084C176.18 28.4767 176.252 27.7849 176.087 27.13V27.13Z" fill="#FFAABE"/>
<path d="M70.2235 43.1081C83.9575 43.1081 95.7935 36.2301 101.209 26.3081V25.9401L39.2095 26.2641C44.6195 36.2101 56.4695 43.1081 70.2235 43.1081Z" fill="#FD510C"/>
<path d="M101.209 38.2239V26.3179C95.7935 36.2299 83.9575 43.1179 70.2235 43.1179C56.4895 43.1179 44.6235 36.2199 39.2235 26.2839H39.0755V118.616H101.209V38.2159V38.2239Z" fill="#EDEAD9"/>
<path d="M99.5614 38.0399C98.5355 38.0379 97.5207 38.2526 96.5835 38.6702C95.6463 39.0877 94.808 39.6985 94.1234 40.4626C93.4387 41.2267 92.9233 42.1269 92.6108 43.1041C92.2984 44.0814 92.1959 45.1136 92.3102 46.1332C92.4245 47.1527 92.753 48.1366 93.274 49.0204C93.7951 49.9042 94.4971 50.6679 95.3339 51.2615C96.1707 51.855 97.1235 52.2651 98.1299 52.4647C99.1362 52.6644 100.173 52.6491 101.173 52.4199V38.2199C100.644 38.1008 100.104 38.0405 99.5614 38.0399V38.0399Z" fill="#F19400"/>
<path d="M45.3875 45.32C45.3865 43.5558 44.7453 41.8519 43.583 40.5248C42.4206 39.1977 40.8161 38.3375 39.0675 38.104V52.536C40.8163 52.3029 42.4211 51.4429 43.5835 50.1156C44.7459 48.7884 45.3869 47.0843 45.3875 45.32V45.32Z" fill="#F19400"/>
<path d="M67.6475 109.076C66.5024 109.076 65.3735 109.347 64.3525 109.865C63.3314 110.383 62.4471 111.135 61.7712 112.06C61.0953 112.984 60.6469 114.055 60.4624 115.185C60.2779 116.315 60.3626 117.473 60.7095 118.564H74.5875C74.9344 117.473 75.019 116.315 74.8345 115.184C74.6499 114.054 74.2013 112.983 73.5252 112.059C72.849 111.134 71.9644 110.383 70.9431 109.864C69.9219 109.346 68.7927 109.076 67.6475 109.076V109.076Z" fill="#F19400"/>
<path d="M78.1055 17.832C77.8875 17.832 77.6735 17.844 77.4615 17.862C77.1499 16.2366 76.2785 14.7717 74.9989 13.7221C73.7192 12.6724 72.1122 12.1044 70.4572 12.1168C68.8021 12.1291 67.2038 12.7211 65.94 13.7897C64.6761 14.8584 63.8267 16.3361 63.5395 17.966C62.4986 17.7616 61.4252 17.7937 60.3984 18.0599C59.3716 18.3262 58.4178 18.8198 57.6075 19.5043C56.7972 20.1888 56.1511 21.0467 55.717 22.0145C55.2829 22.9824 55.0719 24.0354 55.0995 25.0958C55.1272 26.1561 55.3928 27.1967 55.8767 28.1406C56.3607 29.0845 57.0506 29.9075 57.8954 30.5489C58.7403 31.1903 59.7185 31.6335 60.7578 31.8459C61.797 32.0584 62.8707 32.0345 63.8995 31.776C64.499 32.9174 65.3989 33.8734 66.502 34.5407C67.6051 35.2081 68.8696 35.5614 70.1588 35.5626C71.4481 35.5639 72.7132 35.2129 73.8176 34.5477C74.922 33.8825 75.8238 32.9283 76.4255 31.788C77.3973 32.0241 78.4082 32.0515 79.3914 31.8685C80.3746 31.6855 81.3079 31.2962 82.1297 30.7263C82.9515 30.1563 83.6433 29.4187 84.1593 28.562C84.6753 27.7053 85.0039 26.7489 85.1234 25.756C85.2429 24.763 85.1507 23.756 84.8527 22.8013C84.5548 21.8466 84.0579 20.9659 83.3948 20.2172C82.7317 19.4685 81.9175 18.8689 81.0058 18.4577C80.0941 18.0466 79.1056 17.8334 78.1055 17.832V17.832Z" fill="#FFAABE"/>
<path d="M64.1415 67.9421C68.1632 67.9421 71.4235 64.6818 71.4235 60.6601C71.4235 56.6383 68.1632 53.3781 64.1415 53.3781C60.1198 53.3781 56.8595 56.6383 56.8595 60.6601C56.8595 64.6818 60.1198 67.9421 64.1415 67.9421Z" fill="#F19400"/>
<path d="M85.1575 94.818C89.1792 94.818 92.4395 91.5577 92.4395 87.536C92.4395 83.5143 89.1792 80.254 85.1575 80.254C81.1358 80.254 77.8755 83.5143 77.8755 87.536C77.8755 91.5577 81.1358 94.818 85.1575 94.818Z" fill="#F19400"/>
<path d="M73.7575 28.212C72.7055 28.212 71.8555 27.53 71.4515 27.138C70.6302 27.4245 69.738 27.4356 68.9099 27.1695C68.0818 26.9034 67.3631 26.3747 66.8625 25.6634C66.3619 24.9521 66.1068 24.097 66.1359 23.2277C66.1649 22.3584 66.4765 21.5223 67.0235 20.846C67.0629 20.7935 67.1122 20.7492 67.1687 20.7158C67.2252 20.6823 67.2878 20.6603 67.3528 20.651C67.4178 20.6417 67.4839 20.6453 67.5476 20.6616C67.6112 20.6779 67.6709 20.7066 67.7235 20.746C67.776 20.7854 67.8202 20.8347 67.8537 20.8912C67.8872 20.9477 67.9092 21.0103 67.9184 21.0753C67.9277 21.1403 67.9241 21.2065 67.9078 21.2701C67.8915 21.3337 67.8629 21.3935 67.8235 21.446C67.398 21.9725 67.1623 22.6269 67.1543 23.3037C67.1463 23.9806 67.3666 24.6404 67.7795 25.1767C68.1925 25.713 68.774 26.0946 69.4304 26.26C70.0868 26.4253 70.7797 26.3647 71.3975 26.088L71.7435 25.944L71.9795 26.234C71.9795 26.244 72.8935 27.328 73.9335 27.196C74.3494 27.1477 74.7419 26.978 75.062 26.708C75.3821 26.4381 75.6157 26.0798 75.7335 25.678C75.7737 25.5547 75.8603 25.4518 75.9749 25.3911C76.0896 25.3304 76.2233 25.3167 76.3479 25.3528C76.4725 25.3888 76.5782 25.4719 76.6427 25.5845C76.7071 25.697 76.7254 25.8303 76.6935 25.956C76.523 26.5483 76.1816 27.0771 75.712 27.4763C75.2424 27.8755 74.6655 28.1272 74.0535 28.2C73.9551 28.2099 73.8563 28.2139 73.7575 28.212V28.212Z" fill="#FD510C"/>
<path d="M134.155 50.474C134.228 50.172 134.266 49.8626 134.267 49.552C134.269 48.9529 134.133 48.3614 133.87 47.8231C133.607 47.2847 133.224 46.8139 132.751 46.4468C132.277 46.0798 131.726 45.8263 131.139 45.7058C130.552 45.5853 129.945 45.6011 129.365 45.752C129.107 44.9105 128.574 44.1801 127.85 43.6781C127.127 43.1761 126.257 42.9316 125.378 42.9837C124.499 43.0358 123.663 43.3816 123.005 43.9656C122.346 44.5495 121.903 45.3378 121.745 46.204C121.603 46.1879 121.46 46.1799 121.317 46.18C120.801 46.1797 120.29 46.2811 119.814 46.4784C119.337 46.6757 118.904 46.965 118.539 47.3298C118.174 47.6945 117.884 48.1276 117.687 48.6043C117.489 49.081 117.387 49.592 117.387 50.108C117.387 50.156 117.387 50.204 117.387 50.252C116.736 50.4313 116.142 50.7756 115.662 51.2518C115.183 51.7279 114.835 52.3198 114.651 52.97C114.467 53.6202 114.455 54.3069 114.614 54.9635C114.773 55.6201 115.099 56.2244 115.561 56.7181C116.022 57.2117 116.603 57.5779 117.248 57.7813C117.892 57.9846 118.578 58.0182 119.239 57.8788C119.9 57.7395 120.514 57.4318 121.022 56.9856C121.529 56.5395 121.913 55.9699 122.135 55.332C122.624 56.2454 123.452 56.93 124.441 57.238C124.817 57.3528 125.208 57.4115 125.601 57.412C127.613 57.402 129.061 55.664 129.353 55.302C129.599 56.0258 130.03 56.6726 130.603 57.178C130.879 57.42 131.917 58.234 133.281 58.234C134.247 58.2325 135.178 57.8757 135.897 57.2315C136.616 56.5874 137.072 55.7011 137.179 54.7418C137.286 53.7824 137.036 52.8172 136.477 52.0304C135.918 51.2436 135.089 50.6903 134.147 50.476L134.155 50.474Z" fill="#EDEAD9"/>
<path d="M127.309 62.1199C142.039 61.7079 149.839 54.9699 150.565 54.3199H101.165C106.887 59.4199 116.871 62.4139 127.309 62.1199Z" fill="#129277"/>
<path d="M127.257 62.102C116.827 62.4 106.841 59.4 101.127 54.306V73.588H150.501V54.306C149.775 54.956 141.979 61.69 127.257 62.102Z" fill="#FD510C"/>
<path d="M130.045 54.3199H121.681V73.6119H130.045V54.3199Z" fill="#FFAABE"/>
<path d="M33.8475 62.744C27.5489 63.4495 21.6698 66.2497 17.1528 70.6956C12.6358 75.1415 9.74275 80.9755 8.93747 87.262H33.8475V62.744Z" fill="#FFAABE"/>
<path d="M8.97946 94.738C9.84841 100.961 12.7643 106.717 17.2671 111.099C21.77 115.481 27.6035 118.239 33.8475 118.938V94.738H8.97946Z" fill="#FFAABE"/>
<path d="M41.3255 118.8C47.3328 117.865 52.8792 115.02 57.1429 110.686C61.4066 106.352 64.1608 100.76 64.9975 94.738H41.3255V118.8Z" fill="#FFAABE"/>
<path d="M65.0415 87.262C64.2622 81.1798 61.528 75.5154 57.2508 71.1216C52.9735 66.7278 47.3846 63.8425 41.3255 62.9V87.262H65.0415Z" fill="#FFAABE"/>
<path d="M41.3255 87.262V62.9C38.8507 62.5178 36.3361 62.4653 33.8475 62.744V87.262H41.3255Z" fill="#129277"/>
<path d="M33.8475 94.738V118.938C36.3362 119.214 38.8504 119.162 41.3255 118.782V94.738H33.8475Z" fill="#129277"/>
<path d="M33.8475 87.262H8.93749C8.62269 89.745 8.63681 92.2587 8.97949 94.738H33.8475V87.262Z" fill="#129277"/>
<path d="M65.0415 87.262H41.3255V94.738H64.9975C65.3394 92.2587 65.3542 89.7452 65.0415 87.262Z" fill="#129277"/>
<path d="M41.4255 94.838H33.7475V87.162H41.4255V94.838ZM33.9475 94.638H41.2255V87.362H33.9475V94.638Z" fill="#231F20"/>
<path d="M46.6875 90.74C46.6874 90.172 46.5377 89.6141 46.2532 89.1226C45.9688 88.631 45.5598 88.2231 45.0675 87.94C45.089 87.7963 45.1003 87.6513 45.1015 87.506C45.1009 86.6486 44.76 85.8265 44.1535 85.2205C43.5471 84.6144 42.7248 84.274 41.8675 84.274C41.7229 84.2755 41.5786 84.2862 41.4355 84.306C41.1291 83.7748 40.6777 83.3419 40.1342 83.0579C39.5907 82.7739 38.9775 82.6506 38.3665 82.7025C37.7555 82.7543 37.1719 82.9791 36.6839 83.3506C36.196 83.722 35.824 84.2248 35.6115 84.8C35.0872 84.5515 34.5054 84.4494 33.9278 84.5044C33.3502 84.5595 32.7983 84.7697 32.3304 85.1128C31.8625 85.4559 31.496 85.9191 31.2698 86.4534C31.0436 86.9877 30.9661 87.5732 31.0455 88.148C30.6614 88.4296 30.3445 88.7928 30.1175 89.2115C29.8904 89.6301 29.7589 90.0938 29.7323 90.5693C29.7057 91.0449 29.7848 91.5204 29.9638 91.9617C30.1427 92.403 30.4172 92.7993 30.7675 93.122C30.3614 93.7427 30.1814 94.4843 30.2576 95.2221C30.3339 95.9599 30.6617 96.649 31.1861 97.1736C31.7104 97.6982 32.3994 98.0263 33.1371 98.1029C33.8749 98.1794 34.6166 97.9997 35.2375 97.594C35.4055 98.2234 35.76 98.7874 36.2543 99.2117C36.7487 99.6361 37.3598 99.901 38.0075 99.9718C38.6551 100.042 39.3091 99.9157 39.8834 99.6081C40.4577 99.3004 40.9255 98.8263 41.2255 98.248C41.8661 98.5228 42.5784 98.5831 43.2561 98.4199C43.9337 98.2568 44.5405 97.8789 44.9859 97.3427C45.4313 96.8065 45.6913 96.1406 45.7273 95.4445C45.7632 94.7484 45.5732 94.0593 45.1855 93.48C45.6473 93.1878 46.0274 92.7831 46.2901 92.3038C46.5528 91.8246 46.6895 91.2865 46.6875 90.74Z" fill="#EDEAD9"/>
<path d="M39.1315 94.774C38.4315 94.774 37.8615 94.362 37.5515 94.08C36.9729 94.2549 36.3535 94.2403 35.7838 94.0384C35.2141 93.8365 34.7238 93.4578 34.3844 92.9577C34.045 92.4575 33.8743 91.862 33.8971 91.258C33.92 90.654 34.1352 90.0731 34.5115 89.6C34.591 89.4939 34.7095 89.4238 34.8408 89.4051C34.972 89.3863 35.1054 89.4205 35.2115 89.5C35.3176 89.5796 35.3877 89.698 35.4064 89.8293C35.4252 89.9606 35.391 90.0939 35.3115 90.2C35.0504 90.5209 34.9051 90.9204 34.899 91.3341C34.8929 91.7477 35.0263 92.1514 35.2778 92.4798C35.5293 92.8083 35.8842 93.0424 36.2851 93.1444C36.686 93.2464 37.1096 93.2104 37.4875 93.042L37.8335 92.896L38.0695 93.186C38.2195 93.368 38.7235 93.828 39.2215 93.768C39.4654 93.7389 39.6955 93.6389 39.8832 93.4804C40.0709 93.3218 40.208 93.1117 40.2775 92.876C40.294 92.811 40.3234 92.75 40.3639 92.6966C40.4045 92.6432 40.4554 92.5985 40.5136 92.5651C40.5718 92.5318 40.6361 92.5105 40.7027 92.5025C40.7693 92.4945 40.8368 92.5001 40.9012 92.5187C40.9656 92.5374 41.0256 92.5688 41.0776 92.6111C41.1297 92.6534 41.1727 92.7058 41.204 92.7651C41.2354 92.8243 41.2545 92.8893 41.2603 92.9561C41.266 93.023 41.2583 93.0903 41.2375 93.154C41.1134 93.577 40.8677 93.9543 40.531 94.2387C40.1942 94.5232 39.7813 94.7024 39.3435 94.754C39.2733 94.7654 39.2025 94.7721 39.1315 94.774V94.774Z" fill="#FD510C"/>
<path d="M161.94 84.656H101.214V118.616H170.33C171.145 118.616 171.927 118.292 172.503 117.716C173.08 117.139 173.404 116.357 173.404 115.542V84.656H161.94Z" fill="#FFAABE"/>
<path d="M112.687 118.384C112.622 118.384 112.557 118.372 112.496 118.347C112.435 118.322 112.38 118.285 112.333 118.238C112.287 118.192 112.25 118.137 112.225 118.076C112.2 118.015 112.187 117.95 112.187 117.884V90.0181C112.187 89.8855 112.24 89.7583 112.334 89.6645C112.428 89.5707 112.555 89.5181 112.687 89.5181C112.82 89.5181 112.947 89.5707 113.041 89.6645C113.135 89.7583 113.187 89.8855 113.187 90.0181V117.884C113.188 117.95 113.175 118.015 113.15 118.076C113.125 118.137 113.088 118.192 113.042 118.238C112.995 118.285 112.94 118.322 112.879 118.347C112.818 118.372 112.753 118.384 112.687 118.384Z" fill="#FD510C"/>
<path d="M122.535 118.384C122.47 118.384 122.405 118.372 122.344 118.347C122.283 118.322 122.228 118.285 122.181 118.238C122.135 118.192 122.098 118.137 122.073 118.076C122.048 118.015 122.035 117.95 122.035 117.884V90.0181C122.035 89.8855 122.088 89.7583 122.182 89.6645C122.276 89.5707 122.403 89.5181 122.535 89.5181C122.668 89.5181 122.795 89.5707 122.889 89.6645C122.983 89.7583 123.035 89.8855 123.035 90.0181V117.884C123.036 117.95 123.023 118.015 122.998 118.076C122.973 118.137 122.936 118.192 122.89 118.238C122.843 118.285 122.788 118.322 122.727 118.347C122.666 118.372 122.601 118.384 122.535 118.384V118.384Z" fill="#FD510C"/>
<path d="M132.385 118.384C132.32 118.384 132.255 118.372 132.194 118.347C132.133 118.322 132.078 118.285 132.031 118.238C131.985 118.192 131.948 118.137 131.923 118.076C131.898 118.015 131.885 117.95 131.885 117.884V90.0181C131.885 89.8855 131.938 89.7583 132.032 89.6645C132.126 89.5707 132.253 89.5181 132.385 89.5181C132.518 89.5181 132.645 89.5707 132.739 89.6645C132.833 89.7583 132.885 89.8855 132.885 90.0181V117.884C132.886 117.95 132.873 118.015 132.848 118.076C132.823 118.137 132.786 118.192 132.74 118.238C132.693 118.285 132.638 118.322 132.577 118.347C132.516 118.372 132.451 118.384 132.385 118.384Z" fill="#FD510C"/>
<path d="M142.237 118.384C142.172 118.384 142.107 118.372 142.046 118.347C141.985 118.322 141.93 118.285 141.883 118.238C141.837 118.192 141.8 118.137 141.775 118.076C141.75 118.015 141.737 117.95 141.737 117.884V90.0181C141.737 89.8855 141.79 89.7583 141.884 89.6645C141.978 89.5707 142.105 89.5181 142.237 89.5181C142.37 89.5181 142.497 89.5707 142.591 89.6645C142.685 89.7583 142.737 89.8855 142.737 90.0181V117.884C142.738 117.95 142.725 118.015 142.7 118.076C142.675 118.137 142.638 118.192 142.592 118.238C142.545 118.285 142.49 118.322 142.429 118.347C142.368 118.372 142.303 118.384 142.237 118.384Z" fill="#FD510C"/>
<path d="M152.087 118.384C152.022 118.384 151.957 118.372 151.896 118.347C151.835 118.322 151.78 118.285 151.733 118.238C151.687 118.192 151.65 118.137 151.625 118.076C151.6 118.015 151.587 117.95 151.587 117.884V90.0181C151.587 89.8855 151.64 89.7583 151.734 89.6645C151.828 89.5707 151.955 89.5181 152.087 89.5181C152.22 89.5181 152.347 89.5707 152.441 89.6645C152.535 89.7583 152.587 89.8855 152.587 90.0181V117.884C152.588 117.95 152.575 118.015 152.55 118.076C152.525 118.137 152.488 118.192 152.442 118.238C152.395 118.285 152.34 118.322 152.279 118.347C152.218 118.372 152.153 118.384 152.087 118.384V118.384Z" fill="#FD510C"/>
<path d="M161.939 118.384C161.874 118.384 161.809 118.372 161.748 118.347C161.687 118.322 161.632 118.285 161.585 118.238C161.539 118.192 161.502 118.137 161.477 118.076C161.452 118.015 161.439 117.95 161.439 117.884V90.0181C161.439 89.8855 161.492 89.7583 161.586 89.6645C161.68 89.5707 161.807 89.5181 161.939 89.5181C162.072 89.5181 162.199 89.5707 162.293 89.6645C162.387 89.7583 162.439 89.8855 162.439 90.0181V117.884C162.44 117.95 162.427 118.015 162.402 118.076C162.377 118.137 162.34 118.192 162.294 118.238C162.247 118.285 162.192 118.322 162.131 118.347C162.07 118.372 162.005 118.384 161.939 118.384Z" fill="#FD510C"/>
<path d="M173.403 76.6859C173.403 75.8707 173.08 75.0888 172.503 74.5123C171.927 73.9358 171.145 73.6119 170.329 73.6119H101.214V84.6559H101.299C101.071 86.0596 101.306 87.4996 101.968 88.758C102.631 90.0164 103.685 91.0248 104.972 91.6306C106.259 92.2364 107.708 92.4068 109.1 92.1158C110.492 91.8248 111.751 91.0884 112.687 90.0179C113.302 90.7196 114.059 91.2819 114.908 91.6672C115.757 92.0524 116.679 92.2517 117.611 92.2517C118.544 92.2517 119.466 92.0524 120.315 91.6672C121.164 91.2819 121.921 90.7196 122.535 90.0179C123.15 90.7197 123.907 91.282 124.757 91.6672C125.606 92.0525 126.528 92.2518 127.46 92.2518C128.393 92.2518 129.315 92.0525 130.164 91.6672C131.014 91.282 131.771 90.7197 132.385 90.0179C133 90.7197 133.757 91.282 134.607 91.6672C135.456 92.0525 136.378 92.2518 137.31 92.2518C138.243 92.2518 139.165 92.0525 140.014 91.6672C140.864 91.282 141.621 90.7197 142.235 90.0179C142.85 90.7197 143.607 91.282 144.457 91.6672C145.306 92.0525 146.228 92.2518 147.16 92.2518C148.093 92.2518 149.015 92.0525 149.864 91.6672C150.714 91.282 151.471 90.7197 152.085 90.0179C152.7 90.7196 153.457 91.2819 154.306 91.6672C155.155 92.0524 156.077 92.2517 157.009 92.2517C157.942 92.2517 158.864 92.0524 159.713 91.6672C160.562 91.2819 161.319 90.7196 161.933 90.0179C162.869 91.089 164.129 91.826 165.521 92.1173C166.913 92.4086 168.363 92.2384 169.649 91.6324C170.936 91.0264 171.991 90.0176 172.653 88.7588C173.315 87.5 173.549 86.0597 173.319 84.6559H173.405L173.403 76.6859Z" fill="#EDEAD9"/>
<path d="M152.019 13.098L145.219 14.23C145.182 14.2364 145.147 14.2516 145.117 14.2744C145.087 14.2972 145.063 14.3269 145.046 14.361C145.03 14.3951 145.022 14.4326 145.023 14.4704C145.025 14.5081 145.035 14.545 145.053 14.578L147.121 18.21C147.147 18.2545 147.157 18.306 147.15 18.3568C147.144 18.4076 147.12 18.4547 147.084 18.4911C147.048 18.5274 147.001 18.5509 146.95 18.5579C146.9 18.5649 146.848 18.5551 146.803 18.53L143.175 16.466C143.142 16.447 143.105 16.4364 143.067 16.435C143.029 16.4337 142.991 16.4416 142.957 16.4581C142.923 16.4747 142.893 16.4994 142.871 16.53C142.848 16.5607 142.833 16.5964 142.827 16.634L141.687 24.382C141.68 24.4383 141.652 24.49 141.61 24.5274C141.567 24.5648 141.512 24.5855 141.455 24.5855C141.399 24.5855 141.344 24.5648 141.301 24.5274C141.258 24.49 141.231 24.4383 141.223 24.382L140.087 16.634C140.082 16.5964 140.067 16.5607 140.044 16.53C140.022 16.4994 139.992 16.4747 139.958 16.4581C139.924 16.4416 139.886 16.4337 139.848 16.435C139.81 16.4364 139.772 16.447 139.739 16.466L136.111 18.53C136.067 18.5551 136.015 18.5649 135.964 18.5579C135.914 18.5509 135.867 18.5274 135.831 18.4911C135.795 18.4547 135.771 18.4076 135.765 18.3568C135.758 18.306 135.768 18.2545 135.793 18.21L137.859 14.58C137.878 14.547 137.889 14.5099 137.89 14.4718C137.892 14.4338 137.884 14.3959 137.867 14.3617C137.851 14.3274 137.826 14.2976 137.795 14.275C137.765 14.2525 137.729 14.2377 137.691 14.232L130.473 13.098C130.417 13.0906 130.365 13.063 130.328 13.0203C130.291 12.9776 130.27 12.9228 130.27 12.866C130.27 12.8092 130.291 12.7544 130.328 12.7117C130.365 12.669 130.417 12.6414 130.473 12.634L137.687 11.5C137.725 11.4943 137.761 11.4796 137.791 11.457C137.822 11.4344 137.847 11.4046 137.863 11.3703C137.88 11.3361 137.888 11.2983 137.886 11.2602C137.885 11.2222 137.874 11.185 137.855 11.152L135.789 7.52201C135.764 7.47754 135.754 7.42597 135.761 7.3752C135.767 7.32443 135.791 7.27727 135.827 7.24094C135.863 7.20462 135.91 7.18114 135.96 7.1741C136.011 7.16707 136.063 7.17687 136.107 7.202L139.733 9.26601C139.767 9.285 139.804 9.29559 139.842 9.29685C139.88 9.29811 139.918 9.29 139.953 9.27323C139.987 9.25646 140.017 9.23154 140.039 9.20065C140.062 9.16976 140.076 9.13383 140.081 9.096L141.219 1.07801C141.228 1.02263 141.257 0.97224 141.299 0.935867C141.342 0.899494 141.396 0.879517 141.452 0.879517C141.509 0.879517 141.563 0.899494 141.606 0.935867C141.648 0.97224 141.677 1.02263 141.685 1.07801L142.823 9.096C142.829 9.13383 142.843 9.16976 142.866 9.20065C142.888 9.23154 142.918 9.25646 142.952 9.27323C142.987 9.29 143.025 9.29811 143.063 9.29685C143.101 9.29559 143.138 9.285 143.171 9.26601L146.793 7.20001C146.838 7.17398 146.89 7.16347 146.941 7.17011C146.993 7.17675 147.04 7.20017 147.077 7.23671C147.113 7.27325 147.137 7.32086 147.143 7.37211C147.15 7.42335 147.139 7.47536 147.113 7.52001L145.043 11.152C145.025 11.1849 145.014 11.2219 145.012 11.2598C145.011 11.2977 145.019 11.3354 145.035 11.3696C145.051 11.4039 145.076 11.4337 145.106 11.4564C145.137 11.4791 145.172 11.4941 145.209 11.5L152.009 12.632C152.065 12.6397 152.116 12.6669 152.154 12.7088C152.191 12.7507 152.212 12.8046 152.213 12.8607C152.214 12.9169 152.196 12.9716 152.16 13.0151C152.125 13.0586 152.075 13.088 152.019 13.098Z" fill="#EE9334"/>
<path d="M21.7575 43.066L14.9575 44.2C14.9203 44.206 14.8851 44.221 14.855 44.2436C14.8248 44.2662 14.8005 44.2957 14.7842 44.3297C14.768 44.3636 14.7601 44.401 14.7614 44.4387C14.7626 44.4764 14.7729 44.5132 14.7915 44.546L16.8615 48.18C16.8857 48.2247 16.8949 48.2761 16.8876 48.3264C16.8803 48.3768 16.8569 48.4234 16.8209 48.4594C16.7849 48.4954 16.7383 48.5188 16.6879 48.5261C16.6376 48.5334 16.5862 48.5242 16.5415 48.5L12.9135 46.434C12.8803 46.415 12.843 46.4044 12.8048 46.4031C12.7667 46.4019 12.7287 46.41 12.6944 46.4267C12.6601 46.4435 12.6304 46.4684 12.6079 46.4993C12.5854 46.5302 12.5709 46.5661 12.5655 46.604L11.4295 54.352C11.4221 54.4082 11.3944 54.4599 11.3518 54.4974C11.3091 54.5348 11.2542 54.5554 11.1975 54.5554C11.1407 54.5554 11.0859 54.5348 11.0432 54.4974C11.0005 54.4599 10.9729 54.4082 10.9655 54.352L9.81747 46.6C9.81208 46.5621 9.79751 46.5262 9.77503 46.4953C9.75255 46.4644 9.72285 46.4395 9.68852 46.4227C9.65419 46.406 9.61628 46.3979 9.5781 46.3991C9.53991 46.4004 9.50262 46.411 9.46947 46.43L5.84147 48.5C5.79685 48.5251 5.74522 48.5349 5.69449 48.5279C5.64376 48.5208 5.59674 48.4973 5.56064 48.461C5.52454 48.4247 5.50136 48.3775 5.49464 48.3268C5.48793 48.276 5.49806 48.2244 5.52347 48.18L7.58947 44.55C7.60844 44.5169 7.61908 44.4798 7.62045 44.4418C7.62181 44.4037 7.61388 44.3659 7.59733 44.3316C7.58077 44.2973 7.5561 44.2676 7.52546 44.245C7.49481 44.2224 7.45912 44.2076 7.42147 44.202L0.203471 43.068C0.147184 43.0605 0.0955084 43.0329 0.0580742 42.9903C0.0206399 42.9476 0 42.8927 0 42.836C0 42.7792 0.0206399 42.7243 0.0580742 42.6817C0.0955084 42.639 0.147184 42.6114 0.203471 42.604L7.42147 41.468C7.45906 41.4626 7.49477 41.4481 7.52545 41.4257C7.55613 41.4033 7.58085 41.3738 7.59744 41.3396C7.61402 41.3054 7.62197 41.2677 7.62058 41.2298C7.61919 41.1918 7.60851 41.1548 7.58947 41.122L5.52347 37.492C5.49745 37.4473 5.48694 37.3953 5.49358 37.3441C5.50022 37.2928 5.52363 37.2452 5.56017 37.2087C5.59671 37.1721 5.64432 37.1487 5.69557 37.1421C5.74682 37.1354 5.79882 37.1459 5.84347 37.172L9.46747 39.236C9.50062 39.2549 9.53791 39.2655 9.5761 39.2668C9.61428 39.2681 9.65219 39.2599 9.68652 39.2432C9.72085 39.2264 9.75055 39.2015 9.77303 39.1706C9.79551 39.1397 9.81008 39.1038 9.81547 39.066L10.9555 31.0479C10.9629 30.9917 10.9905 30.94 11.0332 30.9026C11.0759 30.8651 11.1307 30.8445 11.1875 30.8445C11.2442 30.8445 11.2991 30.8651 11.3418 30.9026C11.3844 30.94 11.4121 30.9917 11.4195 31.0479L12.5575 39.066C12.5629 39.1038 12.5774 39.1397 12.5999 39.1706C12.6224 39.2015 12.6521 39.2264 12.6864 39.2432C12.7207 39.2599 12.7587 39.2681 12.7968 39.2668C12.835 39.2655 12.8723 39.2549 12.9055 39.236L16.5315 37.172C16.5761 37.1459 16.6281 37.1354 16.6794 37.1421C16.7306 37.1487 16.7782 37.1721 16.8148 37.2087C16.8513 37.2452 16.8747 37.2928 16.8814 37.3441C16.888 37.3953 16.8775 37.4473 16.8515 37.492L14.7815 41.124C14.763 41.1569 14.7527 41.1938 14.7515 41.2316C14.7502 41.2693 14.7581 41.3069 14.7743 41.341C14.7906 41.3751 14.8148 41.4048 14.8449 41.4275C14.8751 41.4503 14.9102 41.4656 14.9475 41.472L21.7575 42.6C21.8155 42.6053 21.8695 42.6322 21.9088 42.6753C21.9481 42.7184 21.9699 42.7746 21.9699 42.833C21.9699 42.8913 21.9481 42.9475 21.9088 42.9906C21.8695 43.0337 21.8155 43.0606 21.7575 43.066V43.066Z" fill="#EE9334"/>
</svg>
